<svg width="1091" height="633" viewBox="0 0 1091 633" fill="none" xmlns="http://www.w3.org/2000/svg">
<path d="M545.362 222.737L492.326 194.703L400.264 146.045C400.18 145.961 400.012 145.961 399.928 145.961C396.567 144.365 393.121 147.726 394.382 151.088L441.291 270.731L441.299 270.756C441.35 270.874 441.392 270.991 441.442 271.109C443.367 275.571 447.569 278.328 452.14 279.412C452.527 279.496 452.803 279.572 453.267 279.665C453.729 279.767 454.375 279.907 454.93 279.949C455.023 279.958 455.107 279.958 455.199 279.966H455.266C455.333 279.975 455.401 279.975 455.468 279.983H455.56C455.619 279.991 455.686 279.991 455.745 279.991H455.855C455.922 280 455.989 280 456.056 280V280C515.18 286.446 575.687 286.446 634.811 280V280C635.525 280 636.222 279.966 636.895 279.899C637.113 279.874 637.323 279.849 637.533 279.823C637.559 279.815 637.592 279.815 637.617 279.807C637.76 279.79 637.903 279.765 638.046 279.739C638.256 279.714 638.466 279.672 638.676 279.63C639.096 279.538 639.288 279.47 639.858 279.274C640.428 279.079 641.375 278.736 641.967 278.45C642.559 278.164 642.971 277.891 643.466 277.58C644.08 277.193 644.663 276.797 645.255 276.354C645.51 276.158 645.685 276.033 645.87 275.857L645.769 275.798L545.362 222.737Z" fill="#FAFAFA"/>
<path d="M690.613 146.047H690.529L598.433 194.704L649.628 270.951L696.42 151.089V150.921C697.596 147.391 693.983 144.198 690.613 146.047" fill="#A3A8B8"/>
<path d="M550.27 122.911C547.917 119.474 542.791 119.474 540.522 122.911L492.327 194.704L545.362 222.738L645.87 275.857C646.501 275.239 647.007 274.637 647.543 274.001C648.299 273.068 649.005 272.068 649.627 270.95L598.432 194.704L550.27 122.911Z" fill="#D5DAE5"/>
<path d="M213.337 392.293H231.728C230.886 368.614 209.045 350.912 178.699 350.912C148.659 350.912 125.057 368.384 125.057 394.745C125.057 415.896 140.383 428.464 164.905 435.514L184.217 441.031C200.769 445.629 215.482 451.453 215.482 467.086C215.482 484.252 198.93 495.593 177.166 495.593C158.468 495.593 141.916 487.317 140.383 469.538H120.765C122.604 495.287 143.448 512.759 177.166 512.759C213.337 512.759 233.874 492.834 233.874 467.393C233.874 437.966 205.98 428.464 189.734 424.172L173.795 419.881C162.147 416.815 143.448 410.685 143.448 393.826C143.448 378.806 157.242 367.771 178.086 367.771C197.091 367.771 211.498 376.814 213.337 392.293ZM309.543 392.293H284.408V364.093H266.322V392.293H248.544V407.62H266.322V481.186C266.322 501.724 282.875 511.533 298.201 511.533C304.945 511.533 309.236 510.307 311.689 509.387L308.01 493.141C306.478 493.447 304.025 494.061 300.041 494.061C292.071 494.061 284.408 491.608 284.408 476.282V407.62H309.543V392.293ZM332.431 510H350.517V435.514C350.517 419.574 363.084 407.926 380.25 407.926C385.078 407.926 390.059 408.846 391.285 409.152V390.761C389.216 390.607 384.465 390.454 381.782 390.454C367.682 390.454 355.421 398.424 351.13 410.072H349.904V392.293H332.431V510ZM454.175 512.452C478.084 512.452 495.556 500.498 501.074 482.719L483.602 477.815C479.004 490.076 468.352 496.206 454.175 496.206C432.948 496.206 418.311 482.489 417.468 457.277H502.913V449.614C502.913 405.78 476.858 390.761 452.336 390.761C420.457 390.761 399.307 415.896 399.307 452.066C399.307 488.237 420.151 512.452 454.175 512.452ZM417.468 441.644C418.695 423.329 431.645 407.007 452.336 407.007C471.954 407.007 484.521 421.72 484.521 441.644H417.468ZM560.746 512.759C581.283 512.759 592.012 501.724 595.69 494.061H596.61V510H614.695V432.448C614.695 395.052 586.188 390.761 571.168 390.761C553.389 390.761 533.158 396.891 523.962 418.348L541.128 424.479C545.113 415.896 554.539 406.7 571.781 406.7C588.41 406.7 596.61 415.513 596.61 430.609V431.222C596.61 439.958 587.72 439.192 566.263 441.951C544.423 444.786 520.591 449.614 520.591 476.588C520.591 499.578 538.369 512.759 560.746 512.759ZM563.505 496.513C549.098 496.513 538.676 490.076 538.676 477.508C538.676 463.714 551.243 459.423 565.344 457.584C573.007 456.664 593.544 454.518 596.61 450.84V467.393C596.61 482.106 584.962 496.513 563.505 496.513ZM643.388 510H661.473V436.433C661.473 419.191 674.041 407.007 688.141 407.007C701.858 407.007 711.437 415.972 711.437 429.383V510H729.829V433.368C729.829 418.195 739.331 407.007 755.884 407.007C768.758 407.007 779.793 413.827 779.793 431.222V510H797.878V431.222C797.878 403.558 783.012 390.761 762.014 390.761C745.155 390.761 732.818 398.5 726.764 410.685H725.538C719.714 398.117 709.445 390.761 693.965 390.761C678.639 390.761 667.297 398.117 662.393 410.685H660.86V392.293H643.388V510ZM844.714 353.058H826.629V510H844.714V353.058ZM873.523 510H891.608V392.293H873.523V510ZM882.718 372.675C889.769 372.675 895.593 367.158 895.593 360.414C895.593 353.671 889.769 348.153 882.718 348.153C875.668 348.153 869.844 353.671 869.844 360.414C869.844 367.158 875.668 372.675 882.718 372.675ZM971.606 392.293H946.471V364.093H928.386V392.293H910.607V407.62H928.386V481.186C928.386 501.724 944.938 511.533 960.265 511.533C967.008 511.533 971.3 510.307 973.752 509.387L970.074 493.141C968.541 493.447 966.089 494.061 962.104 494.061C954.134 494.061 946.471 491.608 946.471 476.282V407.62H971.606V392.293Z" fill="#FAFAFA"/>
</svg>
