<svg width="1091" height="638" viewBox="0 0 1091 638" fill="none" xmlns="http://www.w3.org/2000/svg">
<path d="M545.362 221.551L492.77 193.751L401.478 145.5C401.395 145.417 401.228 145.417 401.145 145.417C397.812 143.834 394.395 147.167 395.645 150.5L442.162 269.142L442.17 269.167C442.22 269.284 442.262 269.401 442.312 269.517C444.22 273.942 448.387 276.676 452.92 277.751C453.303 277.834 453.578 277.91 454.038 278.002C454.496 278.103 455.137 278.242 455.687 278.284C455.778 278.292 455.862 278.292 455.953 278.301H456.02C456.087 278.309 456.153 278.309 456.22 278.317H456.312C456.37 278.326 456.437 278.326 456.495 278.326H456.603C456.67 278.334 456.737 278.334 456.803 278.334V278.334C515.715 284.757 575.151 284.757 634.062 278.334V278.334C634.771 278.334 635.462 278.301 636.129 278.234C636.346 278.209 636.554 278.184 636.762 278.159C636.787 278.151 636.821 278.151 636.846 278.142C636.987 278.126 637.129 278.101 637.271 278.076C637.479 278.051 637.687 278.009 637.896 277.967C638.312 277.876 638.502 277.809 639.067 277.615C639.632 277.421 640.571 277.081 641.159 276.797C641.746 276.514 642.154 276.242 642.646 275.934C643.254 275.551 643.832 275.158 644.419 274.719C644.672 274.525 644.846 274.401 645.029 274.226L644.929 274.167L545.362 221.551Z" fill="#808495"/>
<path d="M689.398 145.502H689.314L597.989 193.752L648.756 269.361L695.156 150.502V150.335C696.323 146.835 692.739 143.668 689.398 145.502" fill="#262730"/>
<path d="M550.229 122.56C547.896 119.151 542.812 119.151 540.562 122.56L492.77 193.752L545.362 221.552L645.029 274.226C645.655 273.613 646.157 273.016 646.688 272.385C647.438 271.46 648.138 270.469 648.754 269.36L597.988 193.752L550.229 122.56Z" fill="#555867"/>
<path d="M213.337 397.293H231.728C230.886 373.614 209.045 355.912 178.699 355.912C148.659 355.912 125.057 373.384 125.057 399.745C125.057 420.896 140.383 433.464 164.905 440.514L184.217 446.031C200.769 450.629 215.482 456.453 215.482 472.086C215.482 489.252 198.93 500.593 177.166 500.593C158.468 500.593 141.916 492.317 140.383 474.538H120.765C122.604 500.287 143.448 517.759 177.166 517.759C213.337 517.759 233.874 497.834 233.874 472.393C233.874 442.966 205.98 433.464 189.734 429.172L173.795 424.881C162.147 421.815 143.448 415.685 143.448 398.826C143.448 383.806 157.242 372.771 178.086 372.771C197.091 372.771 211.498 381.814 213.337 397.293ZM309.543 397.293H284.408V369.093H266.322V397.293H248.544V412.62H266.322V486.186C266.322 506.724 282.875 516.533 298.201 516.533C304.945 516.533 309.236 515.307 311.689 514.387L308.01 498.141C306.478 498.447 304.025 499.061 300.041 499.061C292.071 499.061 284.408 496.608 284.408 481.282V412.62H309.543V397.293ZM332.431 515H350.517V440.514C350.517 424.574 363.084 412.926 380.25 412.926C385.078 412.926 390.059 413.846 391.285 414.152V395.761C389.216 395.607 384.465 395.454 381.782 395.454C367.682 395.454 355.421 403.424 351.13 415.072H349.904V397.293H332.431V515ZM454.175 517.452C478.084 517.452 495.556 505.498 501.074 487.719L483.602 482.815C479.004 495.076 468.352 501.206 454.175 501.206C432.948 501.206 418.311 487.489 417.468 462.277H502.913V454.614C502.913 410.78 476.858 395.761 452.336 395.761C420.457 395.761 399.307 420.896 399.307 457.066C399.307 493.237 420.151 517.452 454.175 517.452ZM417.468 446.644C418.695 428.329 431.645 412.007 452.336 412.007C471.954 412.007 484.521 426.72 484.521 446.644H417.468ZM560.746 517.759C581.283 517.759 592.012 506.724 595.69 499.061H596.61V515H614.695V437.448C614.695 400.052 586.188 395.761 571.168 395.761C553.389 395.761 533.158 401.891 523.962 423.348L541.128 429.479C545.113 420.896 554.539 411.7 571.781 411.7C588.41 411.7 596.61 420.513 596.61 435.609V436.222C596.61 444.958 587.72 444.192 566.263 446.951C544.423 449.786 520.591 454.614 520.591 481.588C520.591 504.578 538.369 517.759 560.746 517.759ZM563.505 501.513C549.098 501.513 538.676 495.076 538.676 482.508C538.676 468.714 551.243 464.423 565.344 462.584C573.007 461.664 593.544 459.518 596.61 455.84V472.393C596.61 487.106 584.962 501.513 563.505 501.513ZM643.388 515H661.473V441.433C661.473 424.191 674.041 412.007 688.141 412.007C701.858 412.007 711.437 420.972 711.437 434.383V515H729.829V438.368C729.829 423.195 739.331 412.007 755.884 412.007C768.758 412.007 779.793 418.827 779.793 436.222V515H797.878V436.222C797.878 408.558 783.012 395.761 762.014 395.761C745.155 395.761 732.818 403.5 726.764 415.685H725.538C719.714 403.117 709.445 395.761 693.965 395.761C678.639 395.761 667.297 403.117 662.393 415.685H660.86V397.293H643.388V515ZM844.714 358.058H826.629V515H844.714V358.058ZM873.523 515H891.608V397.293H873.523V515ZM882.718 377.675C889.769 377.675 895.593 372.158 895.593 365.414C895.593 358.671 889.769 353.153 882.718 353.153C875.668 353.153 869.844 358.671 869.844 365.414C869.844 372.158 875.668 377.675 882.718 377.675ZM971.606 397.293H946.471V369.093H928.386V397.293H910.607V412.62H928.386V486.186C928.386 506.724 944.938 516.533 960.265 516.533C967.008 516.533 971.3 515.307 973.752 514.387L970.074 498.141C968.541 498.447 966.089 499.061 962.104 499.061C954.134 499.061 946.471 496.608 946.471 481.282V412.62H971.606V397.293Z" fill="#262730"/>
</svg>
