<svg width="39" height="48" viewBox="0 0 39 48" fill="none" xmlns="http://www.w3.org/2000/svg">
<g clip-path="url(#clip0)">
<path d="M32.1908 45.4366C29.7055 47.9261 26.9633 47.538 24.3495 46.3643C21.5707 45.1669 19.0303 45.0911 16.0956 46.3643C12.4409 47.9924 10.5012 47.5191 8.30013 45.4366C-4.1267 32.2319 -2.29248 12.1172 11.831 11.3599C15.2564 11.5492 17.6546 13.3146 19.6723 13.4613C22.6712 12.8318 25.5418 11.0286 28.7517 11.2653C32.6081 11.5871 35.4924 13.1584 37.4183 15.9839C29.4853 20.9061 31.3654 31.6971 38.6519 34.7261C37.1937 38.6781 35.3228 42.5827 32.1862 45.4698L32.1908 45.4366ZM19.3971 11.2179C19.0257 5.34916 23.6342 0.521628 28.9351 0.0483398C29.6642 6.81635 22.9739 11.8805 19.3971 11.2179Z" fill="#808495"/>
</g>
<defs>
<clipPath id="clip0">
<rect width="38.6104" height="47.3288" fill="white"/>
</clipPath>
</defs>
</svg>
