<svg width="115" height="48" viewBox="0 0 115 48" fill="none" xmlns="http://www.w3.org/2000/svg">
<g clip-path="url(#clip0)">
<path d="M106.015 36.8856C105.709 36.8856 105.498 36.6721 105.498 36.3649V21.1064H100.34C100.034 21.1064 99.8222 20.8938 99.8222 20.5863V18.4815C99.8222 18.1733 100.034 17.9601 100.34 17.9601H114.068C114.375 17.9601 114.586 18.1735 114.586 18.4815V20.5861C114.586 20.8934 114.375 21.1064 114.068 21.1064H108.911V36.3647C108.911 36.6721 108.699 36.8856 108.394 36.8856H106.015ZM66.5089 29.2677L63.8016 21.4617L61.0701 29.2677H66.5089ZM72.5134 36.2691C72.6318 36.5774 72.443 36.8856 72.1133 36.8856H69.6649C69.3115 36.8856 69.0993 36.7205 68.9812 36.3878L67.5926 32.3676H59.9877L58.5967 36.3878C58.4798 36.7206 58.2671 36.8856 57.9146 36.8856H55.6078C55.3013 36.8856 55.089 36.5773 55.2069 36.2691L61.5878 18.4342C61.7059 18.1019 61.9178 17.9609 62.2703 17.9609H65.4256C65.7791 17.9609 66.0146 18.102 66.1323 18.4342L72.5134 36.2691ZM90.8038 34.3303C92.3101 34.3303 93.3231 33.5981 94.1474 32.3438L90.3335 28.2271C88.873 29.0557 87.9306 29.8826 87.9306 31.539C87.9309 33.1716 89.2488 34.3303 90.8038 34.3303ZM91.8632 20.4676C90.6392 20.4676 89.9328 21.249 89.9328 22.2897C89.9328 23.0939 90.3558 23.8037 91.3216 24.8448C92.9932 23.8742 93.7 23.2831 93.7 22.2426C93.7 21.2719 93.088 20.4676 91.8632 20.4676ZM102.295 36.2232C102.601 36.5546 102.413 36.8856 102.035 36.8856H99.0448C98.6446 36.8856 98.4327 36.7905 98.1738 36.4827L96.3843 34.4964C95.1837 36.1051 93.5105 37.3113 90.7327 37.3113C87.2951 37.3113 84.5864 35.2297 84.5864 31.6582C84.5864 28.9133 86.0471 27.4462 88.2608 26.2164C87.1767 24.9627 86.6832 23.6379 86.6832 22.4793C86.6832 19.5451 88.7316 17.5347 91.8157 17.5347C94.971 17.5347 96.9021 19.4042 96.9021 22.1714C96.9021 24.537 95.2072 25.8606 93.417 26.8549L96.0547 29.7183L97.5378 27.1151C97.726 26.808 97.9381 26.6893 98.3143 26.6893H100.598C100.975 26.6893 101.187 26.9502 100.952 27.3522L98.3146 31.8935L102.295 36.2232ZM78.7963 36.8856C79.1024 36.8856 79.3154 36.6721 79.3154 36.3649V21.1064H84.4713C84.7774 21.1064 84.9891 20.8938 84.9891 20.5863V18.4815C84.9891 18.1733 84.7774 17.9601 84.4713 17.9601H70.7432C70.4367 17.9601 70.2252 18.1735 70.2252 18.4815V20.5861C70.2252 20.8934 70.4368 21.1064 70.7432 21.1064H75.8991V36.3647C75.8991 36.6721 76.1117 36.8856 76.4175 36.8856H78.7963Z" fill="#808495"/>
<path d="M9.11023 42.3533C13.1035 45.46 18.1158 47.3267 23.5538 47.3267C29.5048 47.3267 34.9301 45.1061 39.0705 41.461C39.1207 41.4164 39.096 41.387 39.0465 41.4164C37.1885 42.6636 31.8931 45.3859 23.554 45.3859C16.307 45.3859 11.7272 43.7608 9.14093 42.3099C9.09145 42.2853 9.07312 42.3226 9.11023 42.3533ZM25.1527 43.5629C30.9489 43.5629 37.3183 41.9748 41.1277 38.8314C42.1702 37.9749 43.1631 36.835 44.0524 35.303C44.5644 34.4215 45.0651 33.3743 45.4729 32.3449C45.491 32.2947 45.4602 32.2703 45.4226 32.3267C41.8801 37.5662 31.6218 40.8342 21.0296 40.8342C13.5426 40.8342 5.48674 38.4279 2.3328 33.8333C2.30176 33.7908 2.27071 33.809 2.28962 33.8578C5.22773 40.1342 14.1413 43.5629 25.1527 43.5629ZM18.8197 33.1507C6.7646 33.1507 1.08037 27.5078 0.0492587 23.657C0.0365431 23.6012 0 23.6134 0 23.6635C0 24.9599 0.129104 26.6329 0.351226 27.7434C0.45719 28.2839 0.894905 29.1322 1.53664 29.8084C4.45574 32.8664 11.7334 37.1515 24.3373 37.1515C41.5094 37.1515 45.4358 31.4024 46.2376 29.5118C46.8109 28.1597 47.108 25.7162 47.108 23.6636C47.108 23.167 47.0956 22.7702 47.0769 22.3807C47.0769 22.3175 47.0405 22.3123 47.0279 22.3739C46.1698 27.0001 31.4981 33.1507 18.8197 33.1507ZM2.27071 13.512C1.57995 14.8898 0.814258 17.2142 0.586637 18.4173C0.48686 18.9327 0.52936 19.1802 0.709211 19.5649C2.1541 22.646 9.4626 27.5757 26.5105 27.5757C36.9109 27.5757 44.9903 25.0077 46.2992 20.3214C46.5402 19.4588 46.5532 18.5479 46.2435 17.3206C45.8976 15.9492 45.2497 14.3498 44.7013 13.2268C44.6832 13.1902 44.6512 13.1956 44.6577 13.2389C44.8614 19.3854 27.8068 23.3468 19.2017 23.3468C9.88096 23.3468 2.10484 19.6144 2.10484 14.9016C2.10484 14.4487 2.19809 13.9958 2.31447 13.5245C2.32616 13.4814 2.2895 13.4743 2.27071 13.512ZM39.1087 5.96541C39.2077 6.1213 39.257 6.28766 39.257 6.5116C39.257 9.14077 31.2507 13.7919 18.5056 13.7919C9.14093 13.7919 7.38767 10.3004 7.38767 8.07994C7.38767 7.28621 7.69055 6.47406 8.3576 5.64925C8.39403 5.60021 8.3631 5.58132 8.32106 5.61782C7.10449 6.65402 5.98666 7.81997 5.00606 9.0786C4.53753 9.67384 4.24668 10.2011 4.24668 10.5171C4.24668 15.1186 15.7269 18.4549 26.4613 18.4549C37.899 18.4549 43.0036 14.7023 43.0036 11.4044C43.0036 10.2258 42.5471 9.53775 41.3793 8.20382C40.6213 7.33606 39.9043 6.62949 39.1454 5.93398C39.1087 5.90358 39.0831 5.92834 39.1087 5.96541ZM35.6023 3.33681C32.0724 1.2103 27.9732 0.000488281 23.554 0.000488281C19.104 0.000488281 14.8814 1.25256 11.3388 3.43536C10.2762 4.09266 9.67808 4.61939 9.67808 5.29649C9.67808 7.29243 14.3193 9.43851 22.5534 9.43851C30.7021 9.43851 37.0223 7.08784 37.0223 4.82513C37.0223 4.28504 36.5526 3.90718 35.6023 3.33681Z" fill="#808495"/>
</g>
<defs>
<clipPath id="clip0">
<rect width="114.586" height="47.3288" fill="white"/>
</clipPath>
</defs>
</svg>
