<svg width="52" height="52" viewBox="0 0 52 52" fill="none" xmlns="http://www.w3.org/2000/svg">
<path d="M25.9975 51.48C40.0728 51.48 51.4795 40.0733 51.4795 26.0021C51.4795 11.9309 40.0728 0.52002 25.9975 0.52002C11.9263 0.52002 0.519531 11.9309 0.519531 26.0021C0.519531 40.0733 11.9263 51.48 25.9975 51.48Z" fill="white"/>
<path d="M31.7154 19.3659C31.7154 16.4684 33.6768 13.6583 34.747 14.1877C35.9669 14.7992 33.8328 17.5282 31.7154 19.3659ZM18.3774 20.4215C18.3774 18.0919 20.6758 13.6656 22.0798 14.1336C23.7396 14.6869 20.7049 19.1516 18.3774 20.4215ZM16.0467 37.0823C14.9901 37.1301 14.2829 36.4541 14.2829 35.3257C14.2829 32.2941 18.4897 29.3977 21.6669 27.8429C21.1032 32.0757 19.6732 36.919 16.0467 37.0823ZM35.4552 27.2033C33.0559 27.2033 31.2224 28.9682 31.2224 31.0846C31.2224 32.8495 32.2832 34.2607 33.6903 34.2607C34.1885 34.2607 34.6815 33.9768 34.6815 33.3466C34.6815 32.4241 33.4647 32.2026 33.5562 30.8308C33.6175 29.926 34.4703 29.3207 35.3169 29.3207C37.009 29.3207 37.8004 30.9608 37.8004 32.6529C37.7318 35.2664 35.8078 37.0812 33.5531 37.0812C30.587 37.0812 28.6817 34.2607 28.6817 31.225C28.6817 26.7051 31.6478 24.9413 33.2015 24.5201C33.2161 24.5201 37.2596 25.2387 37.1338 23.4562C37.0755 22.672 35.9097 22.3704 35.0673 22.3382C34.1303 22.3018 33.1839 22.6387 33.1839 22.6387C32.693 22.3891 32.3519 21.9014 32.1407 21.3398C35.0351 19.1495 37.0818 17.0342 37.0818 14.6339C37.0818 13.364 36.2331 12.2346 34.6097 12.2346C31.7154 12.2346 29.5272 15.9047 29.5272 19.2223C29.5272 19.785 29.5272 20.3518 29.6728 20.8447C27.8362 22.1843 26.4707 23.0194 24.0027 24.5014C24.0027 24.1925 24.0672 23.3948 24.2752 22.3631C25.1207 21.4448 26.2824 20.0689 26.2824 19.0091C26.2824 18.5162 26.0027 18.0908 25.4327 18.0908C24.0235 18.0908 22.9669 20.2103 22.684 21.6923C22.0486 22.4723 20.7777 23.4603 19.7169 23.4603C18.8714 23.4603 18.5875 22.6835 18.5157 22.3995C21.1989 21.4812 24.5165 17.8111 24.5165 14.4935C24.5165 13.7894 24.2336 12.2346 22.1172 12.2346C18.9411 12.2346 16.262 16.9655 16.262 20.6315C15.1295 20.6315 14.7083 19.4335 14.7083 18.5151C14.7083 17.5958 15.0608 16.6816 15.0608 16.3977C15.0608 16.1148 14.9194 15.7633 14.494 15.7633C13.4374 15.7633 12.8019 17.1746 12.8019 18.798C12.8747 21.0569 14.3557 22.4723 16.3307 22.6107C16.6135 23.9533 17.8116 25.2242 19.2926 25.2242C20.2119 25.2242 21.3403 24.9413 22.1172 24.2372C22.0486 24.7302 21.9799 25.1555 21.9071 25.5767C18.7996 27.2033 16.5407 28.3317 14.494 30.1663C12.8747 31.6503 11.9564 33.6253 11.9564 35.1759C11.9564 37.2965 13.2959 39.2715 16.0478 39.2715C19.2926 39.2715 21.7657 36.6611 22.9669 33.0595C23.5295 31.3675 23.7552 28.9027 23.8998 26.6407C27.1425 24.803 28.6817 23.7443 30.3769 22.542C30.588 22.8946 30.8012 23.1764 31.081 23.3875C29.6 24.1644 26.0713 26.3536 26.0713 31.5047C26.0713 35.1749 28.5392 39.2704 33.4127 39.2704C37.4354 39.2704 40.1872 35.9518 40.1872 32.7746C40.1862 29.8834 38.5627 27.2033 35.4552 27.2033ZM47.591 33.2665C47.5806 33.2883 47.5411 33.3175 47.461 33.2915C47.3986 33.2696 47.385 33.2405 47.385 33.1999C47.3882 33.1604 48.2379 30.6478 48.2306 27.7691C48.2233 24.6574 46.9607 22.7511 45.3414 22.7511C44.3503 22.7511 43.6452 23.4593 43.6452 24.5201C43.6452 26.4254 45.9727 26.5679 45.9727 30.731C45.9727 32.4231 45.6202 34.0465 45.0586 35.8103C42.444 44.6316 34.1157 48.7271 26.0027 48.7271C22.2597 48.7271 19.6015 47.9575 18.8111 47.6029C18.7788 47.5842 18.7487 47.5228 18.7747 47.4604C18.7923 47.4136 18.8475 47.3772 18.8797 47.3918C19.2 47.5155 21.4828 48.2342 24.3075 48.2342C27.4119 48.2342 29.2485 46.9643 29.2485 45.4095C29.2485 44.4226 28.4716 43.6457 27.4847 43.6457C25.5783 43.6457 25.4338 46.045 21.3414 46.045C19.5775 46.045 18.0238 45.6924 16.1903 45.1256C7.43553 42.4445 3.26825 34.189 3.27137 26.0021C3.27449 22.0127 4.39353 18.8355 4.41121 18.8063C4.42577 18.7855 4.47569 18.7627 4.53705 18.7855C4.59945 18.8063 4.61297 18.8573 4.60985 18.876C4.50897 19.2067 3.76745 21.4833 3.76745 24.3079C3.76745 27.4155 5.03729 29.249 6.66073 29.249C7.57593 29.249 8.35281 28.5449 8.35281 27.5569C8.35281 25.6485 6.02217 25.4374 6.02217 21.3429C6.02217 19.578 6.37785 18.0243 6.94049 16.1907C9.62369 7.4381 17.8834 3.33634 26.0006 3.2729C29.7727 3.24378 33.0726 4.37322 33.1995 4.4741C33.2213 4.49282 33.2431 4.54066 33.2213 4.59786C33.1911 4.6665 33.1475 4.67378 33.1267 4.66962C33.0871 4.6665 30.9406 3.76898 27.6916 3.76898C24.6569 3.76586 22.7506 5.03674 22.7506 6.66226C22.7506 7.57746 23.4588 8.35434 24.5144 8.35434C26.4207 8.35434 26.5622 6.02682 30.6577 6.02682C32.4174 6.02682 33.9722 6.37522 35.8057 6.94202C44.6311 9.62418 48.6466 17.9525 48.7225 26.0011C48.7641 30.1226 47.6024 33.2405 47.591 33.2665ZM26.0016 1.72122C12.5908 1.72122 1.72177 12.5871 1.72177 26.0011C1.72177 39.4119 12.5908 50.2778 26.0016 50.2778C39.4093 50.2778 50.2783 39.4119 50.2783 26.0011C50.2783 12.6599 39.4093 1.72122 26.0016 1.72122ZM26.0016 51.48C11.9554 51.48 0.519531 40.117 0.519531 26.0021C0.519531 11.9517 11.9554 0.52002 26.0016 0.52002C40.0437 0.52002 51.4795 11.9517 51.4795 26.0021C51.4795 40.117 40.0437 51.48 26.0016 51.48Z" fill="#808495"/>
</svg>
