<svg width="101" height="41" viewBox="0 0 101 41" fill="none" xmlns="http://www.w3.org/2000/svg">
<path d="M86.4805 37.4805V40.2336H100.585V37.4805H86.4805ZM77.1632 37.4805L78.1455 40.2263L78.3131 40.2292L79.3129 37.4805H77.1632ZM55.8805 37.4805V40.2336H69.8309V37.4805H55.8805ZM22.3525 37.4805V40.2292H43.6294C47.4041 40.2292 50.2534 37.4805 50.2534 37.4805H22.3525ZM0.154491 37.4805V40.2336H19.7335V37.4805H0.154491ZM86.4805 32.123V34.8805H100.585V32.123H86.4805ZM75.2249 32.123L76.2465 34.8805H80.2209L81.1769 32.123H75.2249ZM55.8805 32.123V34.8805H69.8309V32.123H55.8805ZM22.3525 32.123V34.8805H52.4934C53.1274 34.248 53.4918 32.123 53.4918 32.123H22.3525ZM0.154491 32.123V34.8805H19.7335V32.123H0.154491ZM86.4805 26.7714V29.523H94.9569V26.7714H86.4805ZM73.2981 26.7714L74.2921 29.523H82.0966L83.0993 26.7714H73.2981ZM61.3546 26.7714V29.523H69.8309V26.7714H61.3546ZM44.705 26.7714V29.523H53.7221C53.7221 28.2244 53.1842 26.7714 53.1842 26.7714H44.705ZM27.9796 26.7714V29.523H36.4574V26.7714H27.9796ZM5.6271 26.7714V29.523H14.1064V26.7714H5.6271ZM86.4805 21.4183V24.1699H94.9569V21.4183H86.4805ZM71.3714 21.4183L72.3989 24.1699H84.0437L85.0173 21.4183H71.3714ZM61.3546 21.4183V24.1699H69.8309V21.4183H61.3546ZM27.9796 21.4183V24.1699H52.0256C51.447 22.8334 49.6369 21.4183 49.6369 21.4183H27.9796ZM5.6271 21.4183V24.1699H14.1064V21.4183H5.6271ZM61.3546 16.0637V18.8168H69.8309V17.285L70.3687 18.8168H85.9019L86.4805 17.285V18.8168H94.9569V16.0637H79.0418L78.1965 18.3956L77.3483 16.0637H61.3546ZM27.9796 16.0637V18.8168H49.6369C49.6369 18.8168 51.447 17.4045 52.0256 16.0637H27.9796ZM5.6271 16.0637V18.8168H14.1064V16.0637H5.6271ZM80.8563 10.7062L79.8507 13.4637H94.9569V10.7062H80.8563ZM61.3546 10.7062V13.4637H76.3864L75.3852 10.7062H61.3546ZM44.705 10.7062V13.4637H53.1842C53.1842 13.4637 53.7221 12.0077 53.7221 10.7062H44.705ZM27.9796 10.7062V13.4637H36.4574V10.7062H27.9796ZM5.6271 10.7062V13.4637H14.1064V10.7062H5.6271ZM82.7029 5.35748L81.7745 8.10618H100.431V5.35748H82.7029ZM55.726 5.35748V8.10618H74.4568L73.5284 5.35748H55.726ZM22.3525 5.35748V8.10618H53.4918C53.4918 8.10618 53.1274 5.98855 52.4934 5.35748H22.3525ZM0 5.35311V8.10618H19.579V5.35311H0ZM84.7068 0L83.7056 2.75307H100.431V0H84.7068ZM55.726 0V2.75307H72.6059L71.6046 0H55.726ZM22.3525 0V2.75307H50.2534C50.2534 2.75307 47.4041 0 43.6294 0H22.3525ZM0 0V2.75307H19.579V0H0Z" fill="#808495"/>
</svg>
