<svg width="95" height="40" viewBox="0 0 95 40" fill="none" xmlns="http://www.w3.org/2000/svg">
<g clip-path="url(#clip0)">
<path d="M7.45064 0.555664H0V7.99225H7.45064V0.555664Z" fill="#808495"/>
<path d="M7.26484 39.3001V12.5178H0.211914V39.3001H7.26484ZM54.1429 39.5647V33.0015C53.1088 33.0015 52.2339 32.9486 51.5975 32.8427C50.8551 32.7368 50.2983 32.4722 49.9271 32.1017C49.5559 31.7312 49.3172 31.2019 49.1847 30.5138C49.0786 29.8522 49.0256 28.9789 49.0256 27.9203V18.5518H54.1429V12.5178H49.0256V2.06425H41.9461V27.9732C41.9461 30.1698 42.1317 32.0223 42.5029 33.5043C42.8741 34.9599 43.5105 36.1508 44.3855 37.0506C45.2605 37.9504 46.4271 38.5855 47.8324 38.9825C49.2642 39.3795 51.0672 39.5647 53.2149 39.5647H54.1429ZM94.6575 39.3001V0H87.578V39.3001H94.6575ZM35.1318 15.1378C33.1697 13.0206 30.4122 11.9621 26.9123 11.9621C25.2153 11.9621 23.6775 12.3061 22.2722 12.9942C20.8934 13.6823 19.7003 14.635 18.7722 15.8524L18.3745 16.3552V15.9053V12.5178H11.4011V39.3001H18.4275V25.0356V26.0148C18.4275 25.856 18.4275 25.6972 18.4275 25.5384C18.5071 23.0243 19.1169 21.1718 20.2836 19.9809C21.5298 18.7106 23.0411 18.0754 24.7646 18.0754C26.8062 18.0754 28.3706 18.7106 29.4047 19.9279C30.4122 21.1453 30.9425 22.8655 30.9425 25.0621V25.115V39.2736H38.075V24.0829C38.1015 20.272 37.0939 17.255 35.1318 15.1378ZM83.919 25.856C83.919 23.9241 83.5743 22.1245 82.9114 20.4308C82.222 18.7635 81.2675 17.2815 80.0743 16.0112C78.8547 14.7408 77.3964 13.7617 75.6994 13.0471C74.0025 12.3326 72.1199 11.9885 70.0783 11.9885C68.1427 11.9885 66.3132 12.359 64.6162 13.0736C62.9193 13.8146 61.4345 14.7938 60.1883 16.0376C58.9421 17.2815 57.9345 18.7635 57.2186 20.4572C56.4762 22.151 56.1315 23.977 56.1315 25.909C56.1315 27.8409 56.4762 29.6669 57.1656 31.3607C57.855 33.0544 58.836 34.5364 60.0557 35.7803C61.2754 37.0241 62.7867 38.0298 64.5367 38.7443C66.2867 39.4853 68.2222 39.8559 70.2904 39.8559C76.2827 39.8559 79.9948 37.13 82.222 34.5894L77.1312 30.7255C76.0706 31.9958 73.5252 33.716 70.3434 33.716C68.3548 33.716 66.7109 33.2661 65.4647 32.3399C64.2185 31.4401 63.3701 30.1698 62.9193 28.6084L62.8398 28.3702H83.919V25.856ZM62.8928 23.3948C62.8928 21.4364 65.1465 18.0225 69.9987 17.996C74.8509 17.996 77.1312 21.41 77.1312 23.3683L62.8928 23.3948Z" fill="#808495"/>
</g>
<defs>
<clipPath id="clip0">
<rect width="94.6577" height="39.8559" fill="white"/>
</clipPath>
</defs>
</svg>
