<svg width="160" height="30" viewBox="0 0 160 30" fill="none" xmlns="http://www.w3.org/2000/svg">
<g clip-path="url(#clip0)">
<path fill-rule="evenodd" clip-rule="evenodd" d="M58.0546 10.5067C58.0546 10.2432 58.2338 10.1024 58.4589 10.1024C58.8397 10.1024 59.4146 10.5067 59.7389 11.3152C59.6226 11.3152 59.4477 11.3504 59.3304 11.3504C58.637 11.3504 58.0546 11.0208 58.0546 10.5067V10.5067ZM16.1067 10.5067C16.1067 10.2432 16.2785 10.1024 16.5131 10.1024C16.8843 10.1024 17.4358 10.5067 17.7558 11.3152C16.6849 11.3152 16.1067 11.0838 16.1067 10.5067ZM24.1974 6.32856C24.1974 2.00321 25.0401 1.33867 25.3014 1.33867C25.7665 1.33867 25.822 1.62881 25.822 3.28748C25.822 4.99202 25.0956 7.22243 24.1974 8.44697V6.32856ZM53.6493 10.5931C53.1501 11.2886 52.7458 12.2763 52.7458 13.5489C52.7458 15.9862 54.1357 18.3126 56.8365 18.3126C59.4477 18.3126 61.277 16.2497 61.277 13.3729C61.277 12.5376 61.245 12.4224 61.1906 12.0758C61.7976 11.8112 62.3213 11.407 62.7288 11.0838C63.0754 10.8224 63.3346 10.6763 63.5416 10.6763C63.8018 10.6763 63.916 10.88 63.916 11.2566V16.9483C63.916 17.8753 64.2093 18.3126 64.9315 18.3126C65.5971 18.3126 66.0653 17.8454 66.3245 17.295C67.2845 15.2929 68.6744 12.624 69.2813 11.6107C69.4275 11.3782 69.5459 11.2 69.6291 11.2C69.7453 11.2 69.8051 11.2886 69.8051 11.664V16.1953C69.8051 17.4699 70.3875 18.3126 71.6589 18.3126C72.9965 18.3126 73.66 17.0315 74.8291 15.0593C74.8846 14.9409 74.9091 14.8566 74.9091 14.7723C74.9091 14.511 74.6829 14.3627 74.4493 14.3627C74.1859 14.3627 74.0408 14.6262 73.1725 15.5809C72.9965 15.7622 72.8259 16.0139 72.5037 16.0139C72.3885 16.0139 72.3 15.8742 72.3 15.6971V10.6176C72.3 9.25337 71.6899 8.70297 70.9069 8.70297C70.2701 8.70297 69.7453 8.9643 69.1949 9.77711C68.2083 11.231 67.1928 13.2929 66.6435 14.3318C66.5816 14.4534 66.4984 14.6262 66.4419 14.6262C66.381 14.6262 66.3555 14.5366 66.3555 14.3318V10.6176C66.3555 9.5467 66.0653 8.70297 64.9314 8.70297C63.741 8.70297 63.133 9.51684 62.2626 10.1248C61.7112 10.5355 61.2194 10.8224 60.844 10.9963C60.2605 9.51684 59.1885 8.76697 58.2893 8.78937C57.3869 8.8203 56.749 9.37497 56.749 10.304C56.749 11.2566 57.3325 11.92 58.1122 12.2155C58.5453 12.3894 58.9528 12.4224 59.5362 12.4224C59.7112 12.4224 59.884 12.4224 59.996 12.3894C60.0578 12.6785 60.0301 13.0902 60.0301 13.4081C60.0301 14.8321 59.1885 16.2497 57.6237 16.2497C55.9949 16.2497 55.0413 14.6827 55.0413 12.8854C55.0413 11.5201 55.4455 10.3904 56.1079 9.60964C56.3757 9.31738 56.5751 9.14031 56.5751 8.87257C56.5751 8.73711 56.3757 8.70297 56.1997 8.70297C55.0946 8.70297 53.8797 9.19791 53.0402 9.63098C51.9319 10.2123 50.6295 11.1734 49.5543 12.1302C49.0327 10.9664 48.3948 9.95098 48.0738 9.16484C47.9586 8.84591 47.8743 8.47577 47.6418 8.47577C47.4359 8.47577 47.3463 8.67844 47.2044 9.07844C46.6839 10.6176 43.8967 15.119 43.2876 15.7281C43.23 15.8113 43.1458 15.903 43.118 15.903C43.0551 15.903 43.022 15.8742 43.022 15.6971V10.6176C43.022 9.25338 42.4716 8.70297 41.7228 8.70297C41.0818 8.70297 40.5324 8.96431 40.0108 9.77711C39.0551 11.231 37.8892 13.3494 37.3399 14.3915C37.2513 14.5707 37.1639 14.6262 37.134 14.6262C37.1052 14.6262 37.0817 14.511 37.0817 14.3318V10.6176C37.0817 9.25338 36.5281 8.70297 35.7729 8.70297C35.1329 8.70297 34.5271 8.94084 34.0311 9.77711C32.8151 11.8401 30.7852 15.0027 30.4076 15.5211C30.3489 15.6107 30.2902 15.6694 30.2326 15.6971C30.1751 15.6971 30.142 15.6406 30.142 15.4966V10.6176C30.142 9.25338 29.5916 8.70297 28.8417 8.70297C27.7953 8.70297 27.2182 9.66511 26.8374 10.271C26.3126 11.1126 25.6193 12.2465 25.07 13.2929C24.6913 13.9926 24.3702 14.6262 24.2529 14.6262C24.1974 14.6262 24.1974 14.3627 24.1974 13.871V9.98405C26.0225 7.94884 27.1553 5.45603 27.1553 2.72855C27.1553 1.15841 26.462 0.292274 25.391 0.292274C23.3846 0.292274 21.8508 3.42722 21.8508 7.13817V10.1558C20.9206 10.7371 20.0492 11.0208 18.9739 11.231C18.4246 9.60964 17.2619 8.76697 16.3371 8.78937C15.4401 8.82031 14.799 9.37498 14.799 10.304C14.799 11.8401 16.3083 12.4779 17.6395 12.4779H18.0171C18.0737 12.7702 18.0737 13.0902 18.0737 13.4081C18.0737 14.8321 17.2331 16.2497 15.6705 16.2497C14.047 16.2497 13.087 14.6827 13.087 12.8854C13.087 11.5201 13.4891 10.3904 14.1569 9.60964C14.4203 9.31738 14.6251 9.05604 14.6251 8.87257C14.6251 8.73711 14.4203 8.70297 14.2443 8.70297C13.1425 8.70297 10.7083 10.1888 7.80484 13.0902C7.54776 10.768 7.25549 8.50243 7.25549 6.29656C7.25549 3.83148 7.74296 1.73761 7.85923 1.13387C7.9179 0.75947 7.95416 0.523735 7.95416 0.353068C7.95416 0.119467 7.83043 0 7.5179 0C5.16482 0 0 3.74508 0 9.3451C0 13.3163 1.45387 15.2331 3.97335 17.6993C2.44374 20.1665 1.21707 23.0956 1.21707 25.7078C1.21707 27.5905 1.65654 29.0166 3.04534 29.0166C5.94776 29.0166 8.12163 22.9846 8.12163 18.5131C8.12163 17.1798 8.0683 15.8433 7.95416 14.511C9.02403 13.3729 10.6784 11.84 11.0816 11.695C10.9088 12.3051 10.7926 12.9451 10.7926 13.5489C10.7926 15.9862 12.1878 18.3126 14.8833 18.3126C17.4113 18.3126 19.3227 16.2497 19.3227 13.3729C19.3227 13.0017 19.2929 12.6784 19.2673 12.3318C20.191 12.1579 21.0411 11.92 21.8507 11.4347V17.2662C21.8507 18.0171 22.3691 18.3126 22.863 18.3126C23.5339 18.3126 23.8817 17.8454 24.3702 16.7777C24.7809 15.903 25.8796 13.903 26.5462 12.7094C27.0721 11.7782 27.3622 11.1734 27.5958 11.1734C27.6502 11.1734 27.7121 11.3152 27.7121 11.664V16.6273C27.7121 17.9627 28.4086 18.3126 29.0113 18.3126C29.5916 18.3126 29.9713 17.9937 30.3489 17.4699C31.8593 15.3206 33.4572 12.7702 34.0908 11.664C34.2081 11.4656 34.3521 11.3152 34.4695 11.3152C34.5825 11.3152 34.6412 11.3782 34.6412 11.7504V16.9483C34.6412 17.8753 34.9313 18.3126 35.6599 18.3126C36.3233 18.3126 36.7575 17.8454 37.0167 17.295C37.9809 15.2929 39.3985 12.6507 40.0108 11.6107C40.1527 11.3782 40.2988 11.1734 40.3852 11.1734C40.5057 11.1734 40.5324 11.3152 40.5324 11.695V16.6273C40.5324 17.9627 41.2289 18.3126 41.8423 18.3126C42.6476 18.3126 43.1756 17.7291 43.6972 17.0646C44.6487 15.8113 46.0428 13.5862 46.8855 12.1579C47.1778 12.624 47.4935 13.1766 47.7591 13.7846C47.0615 14.6262 46.3639 15.5809 46.3639 16.5953C46.3639 17.6705 47.118 18.3126 47.902 18.3126C49.2343 18.3126 50.4514 17.0315 50.4514 15.2651C50.4514 14.5707 50.2519 13.8433 49.9927 13.1489C51.1757 11.9851 52.5997 10.8534 53.6493 10.5931H53.6493ZM5.85816 16.9185C6.09282 18.4545 6.29656 19.967 6.29656 21.1542C6.29656 23.935 5.37069 27.1862 3.77388 27.1596C3.15735 27.1596 2.63894 26.543 2.61334 25.4753C2.55468 21.9969 4.20802 19.0358 5.85816 16.9185ZM48.2189 14.9409C48.3949 15.4401 48.4834 15.8433 48.4834 16.2497C48.4834 16.7147 48.3085 17.1798 47.9874 17.1798C47.7591 17.1798 47.5266 16.9185 47.5266 16.511C47.5266 16.0747 47.9021 15.3782 48.2189 14.9409V14.9409ZM6.90563 1.10294C6.90563 1.28001 6.49923 2.08961 5.97869 3.54241C5.42722 5.04855 4.90135 7.19363 4.90135 9.77711C4.90135 11.3152 5.28215 13.3494 5.60322 15.4081L4.67415 16.6603C3.19255 14.8566 2.26561 12.8289 2.26561 9.3451C2.26561 4.41388 5.25335 0.993071 6.78829 0.993071C6.88003 0.993071 6.90563 1.01867 6.90563 1.10294L6.90563 1.10294Z" fill="#808495"/>
<path fill-rule="evenodd" clip-rule="evenodd" d="M143.148 10.5067C143.148 10.2432 143.318 10.1024 143.552 10.1024C143.927 10.1024 144.508 10.5067 144.826 11.3152C144.713 11.3152 144.539 11.3504 144.417 11.3504C143.727 11.3504 143.148 11.0208 143.148 10.5067V10.5067ZM101.192 10.5067C101.192 10.2432 101.369 10.1024 101.598 10.1024C101.976 10.1024 102.532 10.5067 102.845 11.3152C101.772 11.3152 101.192 11.0838 101.192 10.5067ZM109.288 6.32856C109.288 2.00321 110.125 1.33867 110.389 1.33867C110.852 1.33867 110.911 1.62881 110.911 3.28748C110.911 4.99202 110.184 7.22243 109.288 8.44697V6.32856ZM90.9536 16.9185C91.1787 18.4545 91.3899 19.967 91.3899 21.1542C91.3899 23.935 90.4629 27.1862 88.8629 27.1596C88.2549 27.1596 87.7323 26.543 87.7035 25.4753C87.6437 21.9969 89.3003 19.0358 90.9536 16.9185V16.9185ZM133.313 14.9409C133.489 15.4401 133.572 15.8433 133.572 16.2497C133.572 16.7147 133.399 17.1798 133.08 17.1798C132.85 17.1798 132.611 16.9185 132.611 16.511C132.611 16.0747 132.992 15.3782 133.313 14.9409ZM91.9925 1.10294C91.9925 1.28001 91.5904 2.08961 91.0645 3.54241C90.5173 5.04855 89.9915 7.19363 89.9915 9.77711C89.9915 11.3152 90.3787 13.3494 90.6955 15.4081L89.7643 16.6603C88.2869 14.8566 87.3536 12.8289 87.3536 9.3451C87.3536 4.41388 90.3477 0.993071 91.8827 0.993071C91.9669 0.993071 91.9925 1.01867 91.9925 1.10294L91.9925 1.10294ZM87.1552 15.6107C87.6736 16.3073 88.3136 16.9739 89.0677 17.6993C87.5285 20.1665 86.3115 23.0956 86.3115 25.7078C86.3115 27.5905 86.7499 29.0166 88.1429 29.0166C91.0411 29.0166 93.2149 22.9846 93.2149 18.5131C93.2149 17.1798 93.1584 15.8433 93.0421 14.511C94.1173 13.3729 95.7654 11.84 96.1771 11.695C96.0022 12.3051 95.8816 12.9451 95.8816 13.5489C95.8816 15.9862 97.2758 18.3126 99.9766 18.3126C102.498 18.3126 104.413 16.2497 104.413 13.3729C104.413 13.0017 104.386 12.6784 104.354 12.3318C105.284 12.1579 106.131 11.92 106.939 11.4347V17.2662C106.939 18.0171 107.458 18.3126 107.948 18.3126C108.624 18.3126 108.972 17.8454 109.462 16.7777C109.867 15.903 110.972 13.903 111.641 12.7094C112.161 11.7782 112.451 11.1734 112.689 11.1734C112.744 11.1734 112.798 11.3152 112.798 11.664V16.6273C112.798 17.9627 113.492 18.3126 114.102 18.3126C114.685 18.3126 115.058 17.9937 115.443 17.4699C116.947 15.3206 118.545 12.7702 119.182 11.664C119.298 11.4656 119.445 11.3152 119.557 11.3152C119.671 11.3152 119.735 11.3782 119.735 11.7504V16.9483C119.735 17.8753 120.021 18.3126 120.746 18.3126C121.413 18.3126 121.849 17.8454 122.112 17.295C123.07 15.2929 124.491 12.6507 125.098 11.6107C125.246 11.3782 125.39 11.1734 125.481 11.1734C125.594 11.1734 125.626 11.3152 125.626 11.695V16.6273C125.626 17.9627 126.316 18.3126 126.924 18.3126C127.742 18.3126 128.265 17.7291 128.783 17.0646C129.74 15.8113 131.136 13.5862 131.977 12.1579C132.264 12.624 132.587 13.1766 132.85 13.7846C132.146 14.6262 131.457 15.5809 131.457 16.5953C131.457 17.6705 132.203 18.3126 132.992 18.3126C134.324 18.3126 135.541 17.0315 135.541 15.2651C135.541 14.5707 135.34 13.8433 135.079 13.1489C136.267 11.9851 137.69 10.8534 138.734 10.5931C138.241 11.2886 137.835 12.2763 137.835 13.5489C137.835 15.9862 139.229 18.3126 141.928 18.3126C144.539 18.3126 146.362 16.2497 146.362 13.3729C146.362 12.5376 146.335 12.4224 146.281 12.0758C146.883 11.8112 147.409 11.407 147.82 11.0838C148.16 10.8224 148.427 10.6763 148.626 10.6763C148.889 10.6763 149.011 10.88 149.011 11.2566V16.9483C149.011 17.8753 149.297 18.3126 150.023 18.3126C150.687 18.3126 151.154 17.8454 151.417 17.295C152.368 15.2929 153.763 12.624 154.37 11.6107C154.515 11.3782 154.634 11.2 154.721 11.2C154.84 11.2 154.896 11.2886 154.896 11.664V16.1953C154.896 17.4699 155.471 18.3126 156.751 18.3126C158.09 18.3126 158.755 17.0315 159.918 15.0593C159.972 14.9409 160 14.8566 160 14.7723C160 14.511 159.768 14.3627 159.537 14.3627C159.278 14.3627 159.13 14.6262 158.262 15.5809C158.09 15.7622 157.913 16.0139 157.595 16.0139C157.475 16.0139 157.393 15.8742 157.393 15.6971V10.6176C157.393 9.25337 156.777 8.70297 155.994 8.70297C155.359 8.70297 154.84 8.9643 154.286 9.77711C153.297 11.231 152.285 13.2929 151.738 14.3318C151.675 14.4534 151.591 14.6262 151.529 14.6262C151.467 14.6262 151.444 14.5366 151.444 14.3318V10.6176C151.444 9.5467 151.154 8.70297 150.023 8.70297C148.83 8.70297 148.224 9.51684 147.355 10.1248C146.798 10.5355 146.308 10.8224 145.928 10.9963C145.353 9.51684 144.275 8.76697 143.38 8.78937C142.476 8.8203 141.843 9.37497 141.843 10.304C141.843 11.2566 142.424 11.92 143.2 12.2155C143.636 12.3894 144.043 12.4224 144.631 12.4224C144.8 12.4224 144.969 12.4224 145.092 12.3894C145.149 12.6785 145.119 13.0902 145.119 13.4081C145.119 14.8321 144.275 16.2497 142.707 16.2497C141.084 16.2497 140.13 14.6827 140.13 12.8854C140.13 11.5201 140.534 10.3904 141.198 9.60964C141.463 9.31738 141.667 9.14031 141.667 8.87257C141.667 8.73711 141.463 8.70297 141.289 8.70297C140.191 8.70297 138.969 9.19791 138.127 9.63098C137.023 10.2123 135.718 11.1734 134.648 12.1302C134.124 10.9664 133.489 9.95097 133.166 9.16484C133.047 8.8459 132.968 8.47577 132.727 8.47577C132.526 8.47577 132.437 8.67843 132.295 9.07844C131.771 10.6176 128.988 15.119 128.379 15.7281C128.32 15.8113 128.234 15.903 128.203 15.903C128.148 15.903 128.116 15.8742 128.116 15.6971V10.6176C128.116 9.25337 127.569 8.70297 126.808 8.70297C126.169 8.70297 125.626 8.9643 125.098 9.77711C124.139 11.231 122.981 13.3494 122.43 14.3915C122.345 14.5707 122.259 14.6262 122.232 14.6262C122.199 14.6262 122.169 14.511 122.169 14.3318V10.6176C122.169 9.25337 121.621 8.70297 120.866 8.70297C120.226 8.70297 119.613 8.94084 119.124 9.77711C117.902 11.84 115.874 15.0027 115.494 15.5211C115.443 15.6107 115.381 15.6694 115.32 15.6971C115.268 15.6971 115.234 15.6406 115.234 15.4966V10.6176C115.234 9.25337 114.685 8.70297 113.928 8.70297C112.88 8.70297 112.304 9.6651 111.924 10.271C111.403 11.1126 110.71 12.2464 110.157 13.2929C109.782 13.9926 109.462 14.6262 109.346 14.6262C109.288 14.6262 109.288 14.3627 109.288 13.871V9.98404C111.118 7.94883 112.245 5.45602 112.245 2.72854C112.245 1.1584 111.551 0.292268 110.474 0.292268C108.475 0.292268 106.939 3.42721 106.939 7.13816V10.1558C106.008 10.7371 105.137 11.0208 104.062 11.231C103.515 9.60964 102.353 8.76697 101.43 8.78937C100.525 8.8203 99.8891 9.37497 99.8891 10.304C99.8891 11.84 101.393 12.4779 102.731 12.4779H103.11C103.164 12.7702 103.164 13.0902 103.164 13.4081C103.164 14.8321 102.325 16.2497 100.757 16.2497C99.1318 16.2497 98.1792 14.6827 98.1792 12.8854C98.1792 11.52 98.5845 10.3904 99.247 9.60964C99.5072 9.31737 99.712 9.05604 99.712 8.87257C99.712 8.7371 99.5072 8.70297 99.3355 8.70297C98.2315 8.70297 95.7963 10.1888 92.8917 13.0902C92.6368 10.768 92.3435 8.50243 92.3435 6.29656C92.3435 3.83148 92.8363 1.73761 92.9525 1.13387C93.0101 0.75947 93.0421 0.523735 93.0421 0.353068C93.0421 0.119467 92.9237 0 92.6101 0C90.2592 0 85.0944 3.74508 85.0944 9.3451C85.0944 11.6342 85.5872 13.263 86.4576 14.6827C86.1333 14.6262 85.8784 14.6262 85.6405 14.6262C84.7157 14.6262 83.8421 14.8566 83.3002 14.975V14.3915C83.3002 13.1489 83.0058 11.4347 82.4821 10.8534C82.4202 10.7936 82.3338 10.768 82.2528 10.768C82.0138 10.768 81.728 10.88 81.4101 11.056C81.0581 11.231 80.7104 11.407 80.7104 11.52C80.7104 11.5755 80.7104 11.6342 80.7978 11.7782C81.0026 12.0758 81.5552 12.6507 81.7546 14.0182C80.7658 13.0304 79.6394 12.592 78.1653 12.592C76.4213 12.592 75.8965 13.3729 75.8965 14.1611C75.8965 15.6694 77.8986 16.4235 80.4266 16.4235C80.8896 16.4235 81.4101 16.3361 81.9296 16.2177C81.9296 16.6827 81.9882 17.0945 81.9882 17.4401C81.9882 17.9339 82.0725 18.3126 82.3957 18.3126C82.8874 18.3126 83.1797 17.3217 83.2352 15.903C84.1344 15.6694 85.0645 15.4689 85.8507 15.4689C86.2261 15.4689 86.6955 15.5211 87.1552 15.6107V15.6107ZM81.44 15.3206C80.9514 15.3782 80.6538 15.3782 80.1365 15.3782C79.0016 15.3782 78.1653 14.9409 78.1653 14.3083C78.1653 13.903 78.3658 13.6672 78.9461 13.6672C79.8762 13.6672 80.6261 14.3083 81.44 15.3206V15.3206Z" fill="#808495"/>
</g>
<defs>
<clipPath id="clip0">
<rect width="160" height="29.0166" fill="white"/>
</clipPath>
</defs>
</svg>
