<svg width="360" height="45" viewBox="0 0 360 45" fill="none" xmlns="http://www.w3.org/2000/svg">
<path d="M281.219 11.625C279.949 11.625 278.902 12.0531 278.062 12.9062C277.224 13.7605 276.812 14.7231 276.812 15.8125C276.812 17.195 277.427 18.7313 278.656 20.4375C276.615 21.8003 275.222 22.9491 274.5 23.8438C273.78 24.7406 273.437 25.8372 273.438 27.1562C273.438 28.3102 273.734 29.3081 274.312 30.1875C274.89 31.068 275.611 31.7633 276.531 32.25C277.451 32.7367 278.428 33 279.438 33C281.496 33 283.463 31.9603 285.312 29.9062C286.868 31.9603 288.67 33 290.719 33C291.664 33 292.499 32.7169 293.219 32.1875C293.937 31.6592 294.403 30.9534 294.625 30.0938H293.875C293.34 31.0377 292.58 31.5312 291.594 31.5312C290.869 31.5312 290.203 31.307 289.562 30.875C288.923 30.4441 288.03 29.4214 286.906 27.8125C287.378 27.1858 287.904 26.2127 288.469 24.875C289.14 23.2552 289.803 22.1477 290.438 21.5625C291.073 20.9762 291.805 20.5734 292.656 20.3438V19.5938H285.906V20.3438C287.559 20.5319 288.375 21.2042 288.375 22.4062C288.375 22.9072 288.19 23.6075 287.844 24.5C287.498 25.3936 287.035 26.257 286.438 27.0938C284.777 24.7378 283.024 22.3056 281.156 19.7812C284.172 18.2642 285.656 16.707 285.656 15.0938C285.656 14.0569 285.225 13.2013 284.312 12.5625C283.399 11.9237 282.352 11.625 281.219 11.625ZM309.906 11.7188C308.07 11.7188 306.38 12.1381 304.844 13C303.307 13.8619 302.109 15.1892 301.25 16.9688C300.392 18.7472 299.969 20.6416 299.969 22.6562C299.969 25.7242 300.888 28.1977 302.75 30.0625C304.61 31.9273 307.035 32.8437 309.969 32.8438C312.745 32.8438 315.026 31.8283 316.812 29.8125C317.285 30.4348 317.599 31.1539 317.781 31.9688H318.469V24.8125H317.781C317.661 25.9948 317.258 27.2334 316.594 28.5C315.931 29.7677 315.043 30.657 313.906 31.1875C312.767 31.718 311.652 31.9688 310.562 31.9688C308.526 31.9688 306.807 31.162 305.438 29.5312C304.071 27.8994 303.406 25.5603 303.406 22.5C303.406 19.268 304.029 16.767 305.281 15.0312C306.536 13.2933 308.215 12.4375 310.344 12.4375C312.081 12.4375 313.647 12.9819 315.031 14.0625C316.416 15.1431 317.332 17.0425 317.781 19.7812H318.469L318.281 12.0625H317.594C317.501 12.9736 317.253 13.8689 316.812 14.7188C316.204 13.9608 315.263 13.2797 314.031 12.6562C312.798 12.0328 311.422 11.7188 309.906 11.7188ZM189.906 11.7812C188.07 11.7812 186.38 12.2006 184.844 13.0625C183.306 13.9244 182.109 15.2517 181.25 17.0312C180.391 18.8097 179.969 20.703 179.969 22.7188C179.969 25.7856 180.888 28.2591 182.75 30.125C184.609 31.9898 187.002 32.9062 189.938 32.9062C192.711 32.9062 194.996 31.9231 196.781 29.9062C197.256 30.5308 197.601 31.2466 197.781 32.0625H198.469V24.875H197.781C197.661 26.0584 197.259 27.2959 196.594 28.5625C195.931 29.8302 195.045 30.7195 193.906 31.25C192.767 31.7805 191.651 32.0625 190.562 32.0625C188.526 32.0625 186.806 31.2234 185.438 29.5938C184.069 27.9619 183.406 25.6239 183.406 22.5625C183.406 19.3305 184.028 16.8608 185.281 15.125C186.535 13.3881 188.217 12.5 190.344 12.5C192.083 12.5 193.649 13.0444 195.031 14.125C196.415 15.2056 197.331 17.105 197.781 19.8438H198.469L198.281 12.1562H197.594C197.502 13.0673 197.222 13.9314 196.781 14.7812C196.173 14.0233 195.265 13.3411 194.031 12.7188C192.801 12.0953 191.423 11.7812 189.906 11.7812ZM41.25 11.8438C40.1005 11.8438 38.4916 11.8889 36.4375 11.9688L33.875 12.0625V12.75H34.25C35.2902 12.75 35.9684 12.8508 36.2812 13.0312C36.5952 13.2128 36.7842 13.5275 36.875 14C36.9658 14.4725 37.0312 15.5309 37.0312 17.1562V27.1562C37.0312 28.8636 36.9658 29.9705 36.875 30.4375C36.7842 30.9045 36.588 31.2478 36.25 31.4688C35.912 31.6897 35.2845 31.7812 34.4062 31.7812H33.875V32.4688H43.2812V31.7812H42.5938C41.675 31.7812 41.0523 31.6803 40.7188 31.4375C40.3852 31.1958 40.1692 30.8112 40.0938 30.3125C40.0172 29.8137 40 28.7684 40 27.1562V22.8438H42.25C44.5928 22.8438 46.2266 22.6283 47.1562 22.1875C48.087 21.7456 48.7825 21.1031 49.2812 20.25C49.7789 19.3958 50.0312 18.3958 50.0312 17.2812C50.0312 15.9972 49.6681 14.937 48.9375 14.0938C48.2069 13.2505 47.268 12.6752 46.125 12.3438C44.982 12.0123 43.3642 11.8438 41.25 11.8438ZM21.9062 12.0625V12.75H22.375C23.4108 12.75 24.0687 12.8508 24.375 13.0312C24.6823 13.2117 24.9048 13.5297 25 14C25.0952 14.4714 25.125 15.5331 25.125 17.1562V24.0938C25.125 26.3677 25.067 28.0134 24.9062 29C24.7477 29.9887 24.2486 30.8363 23.4688 31.5625C22.6889 32.2887 21.7334 32.6562 20.5938 32.6562C20.0337 32.6562 19.5681 32.5544 19.1875 32.375C18.8091 32.1956 18.625 31.9444 18.625 31.625C18.625 31.5047 18.6708 31.3333 18.7812 31.0938C18.9027 30.8236 18.9688 30.563 18.9688 30.3125C18.9688 29.8925 18.8298 29.5398 18.5312 29.25C18.2337 28.9591 17.8503 28.8125 17.4062 28.8125C16.972 28.8125 16.6111 28.9887 16.3125 29.3125C16.015 29.6362 15.875 30.0264 15.875 30.5C15.875 31.2853 16.2948 31.9614 17.125 32.5312C17.9573 33.1 19.1152 33.375 20.6562 33.375C22.0278 33.375 23.2455 33.1491 24.2812 32.6875C25.317 32.2248 26.1611 31.5752 26.7812 30.7188C27.4014 29.8612 27.7695 28.9659 27.9062 28.0625C28.0408 27.1602 28.0938 25.852 28.0938 24.125V17.1562C28.0938 15.4609 28.1494 14.3892 28.25 13.9375C28.3495 13.4858 28.5644 13.1641 28.875 13C29.1845 12.8327 29.8419 12.75 30.8438 12.75H31.3438V12.0625H21.9062ZM52.7812 12.0625V12.75H53.3438C54.3839 12.75 55.0353 12.8508 55.3438 13.0312C55.6522 13.2128 55.8736 13.5275 55.9688 14C56.065 14.4725 56.0937 15.5298 56.0938 17.1562V26.0312C56.0938 27.7178 56.0589 28.8766 55.9375 29.5C55.8172 30.1223 55.4575 30.6694 54.9062 31.0938C54.3561 31.5203 53.6606 31.732 52.7812 31.7812V32.4688H60.125V31.7812C59.1811 31.7211 58.4592 31.4775 57.9375 31.0312C57.4136 30.585 57.0995 30.0616 57 29.4688C56.8994 28.8759 56.8437 27.7613 56.8438 26.125V14.1875L64.9688 32.4688H65.6875L73.7188 14.1875V27.1875C73.7188 28.8948 73.6889 29.9705 73.5938 30.4375C73.4986 30.9045 73.2755 31.2467 72.9375 31.4688C72.5984 31.6897 71.9945 31.7812 71.125 31.7812H70.4062V32.4688H80.2188V31.7812H79.3125C78.3872 31.7812 77.7634 31.6792 77.4375 31.4375C77.1094 31.1969 76.8923 30.8403 76.8125 30.3438C76.7316 29.8472 76.6875 28.763 76.6875 27.1562V17.1562C76.6875 15.4598 76.7366 14.3903 76.8438 13.9375C76.9477 13.4858 77.157 13.1652 77.4688 13C77.7805 12.8348 78.4636 12.75 79.4688 12.75H80.2188V12.0625H73.9062L66.5 28.9688L59 12.0625H52.7812ZM281.281 12.4062C282.048 12.4062 282.655 12.6658 283.125 13.1875C283.592 13.7103 283.844 14.3722 283.844 15.2188C283.844 16.6384 282.78 17.9658 280.688 19.1875C279.402 17.4233 278.781 16.0237 278.781 15C278.781 14.2584 279.009 13.6572 279.469 13.1562C279.927 12.6564 280.521 12.4062 281.281 12.4062ZM41.5625 12.5625C43.4241 12.5625 44.7647 12.9592 45.5938 13.75C46.4228 14.5397 46.8438 15.7778 46.8438 17.4688C46.8438 18.5767 46.6073 19.5266 46.125 20.2812C45.6416 21.0359 45.0355 21.5116 44.3125 21.75C43.5884 21.9862 42.6445 22.125 41.4688 22.125H40V12.625C40.362 12.5845 40.88 12.5625 41.5625 12.5625ZM243.625 16.4375C242.431 16.4375 241.467 16.7864 240.688 17.5312C239.909 18.2761 239.5 19.2248 239.5 20.3438C239.5 21.0777 239.704 21.7588 240.062 22.4062C240.421 23.0548 240.893 23.5964 241.531 24C242.17 24.4058 243.148 24.867 244.406 25.4062C245.817 26.0089 246.782 26.5698 247.312 27.0938C247.844 27.6253 248.094 28.2761 248.094 29.0625C248.094 29.8413 247.792 30.5586 247.188 31.1875C246.582 31.8164 245.729 32.125 244.625 32.125C242.172 32.125 240.625 30.4753 239.969 27.1875H239.375V32.25H239.969C240.092 31.5927 240.274 31.0808 240.531 30.7188C241.684 32.0378 243.12 32.6875 244.844 32.6875C246.343 32.6875 247.541 32.2775 248.438 31.4375C249.334 30.5953 249.781 29.4994 249.781 28.1562C249.781 27.3075 249.588 26.5548 249.219 25.9062C248.846 25.2588 248.366 24.7727 247.75 24.4062C247.135 24.0398 246.134 23.5423 244.781 22.9375C243.367 22.2998 242.418 21.7241 241.875 21.2188C241.323 20.7222 241.031 20.1248 241.031 19.4062C241.031 18.8112 241.249 18.252 241.688 17.75C242.127 17.2502 242.809 17 243.75 17C244.738 17 245.627 17.352 246.375 18.0312C247.126 18.7127 247.642 19.6269 247.938 20.8125H248.438V16.7188H247.938C247.893 17.212 247.699 17.6705 247.344 18.0938C246.725 17.4156 246.119 16.9655 245.531 16.75C244.942 16.5334 244.293 16.4375 243.625 16.4375ZM89.8438 16.4688C87.4244 16.4688 85.4302 17.1895 83.8125 18.6562C82.1948 20.1219 81.375 22.0773 81.375 24.5C81.375 26.985 82.1866 28.9648 83.7812 30.4688C85.3759 31.9748 87.4169 32.75 89.9062 32.75C92.4623 32.75 94.5253 31.9748 96.0938 30.4688C97.6611 28.9648 98.4375 27.0241 98.4375 24.5938C98.4375 22.0858 97.605 20.1077 95.9688 18.6562C94.3314 17.2059 92.285 16.4687 89.8438 16.4688ZM126.125 16.4688C123.682 16.4688 121.767 17.3102 120.344 19C118.921 20.6888 118.188 22.6619 118.188 24.9062C118.188 27.1747 118.95 29.0536 120.438 30.5312C121.924 32.0089 123.788 32.75 126.031 32.75C127.148 32.75 128.345 32.4911 129.656 32C130.619 31.6391 131.407 31.4688 132 31.4688C132.147 31.4688 132.317 31.4683 132.5 31.5V29.8438C132.5 28.4875 132.54 27.6334 132.625 27.2812C132.709 26.9302 132.889 26.6509 133.156 26.5C133.422 26.3491 133.939 26.2812 134.688 26.2812V25.75H127.906V26.2812H128.281C128.904 26.2812 129.33 26.3402 129.562 26.4375C129.795 26.5327 129.95 26.7189 130.062 27C130.175 27.2822 130.25 27.8442 130.25 28.6875C130.25 29.4061 130.115 29.9984 129.875 30.4688C129.638 30.9402 129.215 31.3281 128.562 31.6562C127.908 31.9866 127.173 32.1562 126.375 32.1562C124.815 32.1562 123.49 31.598 122.438 30.4375C121.384 29.2792 120.875 27.2825 120.875 24.5C120.875 21.7098 121.436 19.7823 122.531 18.6875C123.626 17.5938 124.901 17.0312 126.375 17.0312C127.801 17.0312 129.001 17.5013 130 18.4375C131 19.3748 131.621 20.6455 131.844 22.25H132.375V17H131.844C131.774 17.6333 131.602 18.2333 131.344 18.7812C129.966 17.2423 128.227 16.4688 126.125 16.4688ZM330.781 16.4688C328.362 16.4688 326.368 17.1895 324.75 18.6562C323.132 20.1219 322.313 22.0773 322.312 24.5C322.312 26.985 323.093 28.9648 324.688 30.4688C326.282 31.9748 328.324 32.75 330.812 32.75C333.371 32.75 335.432 31.9748 337 30.4688C338.567 28.9648 339.375 27.0241 339.375 24.5938C339.375 22.0858 338.543 20.1077 336.906 18.6562C335.269 17.2059 333.221 16.4687 330.781 16.4688ZM229.094 16.5L224.531 27.375C224.203 28.157 223.986 28.6039 223.938 28.7188C223.453 29.9492 223.06 30.7433 222.719 31.125C222.377 31.5078 221.855 31.7667 221.156 31.875V32.4062H225.875V31.875C225.366 31.875 224.947 31.7439 224.625 31.5C224.307 31.2572 224.156 30.9089 224.156 30.4375C224.156 29.9967 224.461 29.0698 225.062 27.625L225.469 26.625H231.406L232.625 29.5312C232.98 30.3734 233.156 30.8617 233.156 31.0312C233.156 31.3627 233.015 31.6072 232.75 31.7188C232.483 31.8303 231.972 31.875 231.219 31.875V32.4062H237.375V31.875C236.825 31.8214 236.43 31.682 236.156 31.4688C235.882 31.2577 235.662 30.9634 235.5 30.5938L234.781 28.9688L229.562 16.5H229.094ZM106.344 16.5625C105.465 16.5625 104.275 16.5906 102.781 16.6562L100.562 16.75V17.2812H100.812C101.621 17.2812 102.162 17.3611 102.406 17.5C102.648 17.6389 102.805 17.888 102.875 18.25C102.946 18.612 102.969 19.4072 102.969 20.6562V28.375C102.969 29.6864 102.945 30.5152 102.875 30.875C102.806 31.2337 102.634 31.4878 102.375 31.6562C102.117 31.8258 101.641 31.9062 100.969 31.9062H100.469V32.4375H108V31.9062H107.25C106.538 31.9062 106.032 31.8098 105.781 31.625C105.529 31.4412 105.369 31.1619 105.312 30.7812C105.255 30.4039 105.25 29.6011 105.25 28.375V24.9375H105.875C106.296 24.9375 106.581 25.0152 106.781 25.1562C106.979 25.2984 107.346 25.6628 107.875 26.3125C108.403 26.9589 108.914 27.6383 109.406 28.3438C110.939 30.5509 112.1 31.9114 112.844 32.4375H117.031V31.9062C116.114 31.8756 115.33 31.6183 114.656 31.125C113.985 30.6295 113.058 29.5881 111.875 28C110.423 26.0378 109.342 24.9077 108.688 24.5938C110.14 24.4166 111.252 23.9762 112 23.25C112.75 22.5238 113.125 21.6219 113.125 20.5938C113.125 19.7133 112.827 18.977 112.25 18.3438C111.673 17.7083 110.934 17.2477 110 16.9688C109.064 16.6909 107.837 16.5625 106.344 16.5625ZM143.75 16.5625L139.156 27.4062C138.827 28.1872 138.645 28.6352 138.594 28.75C138.113 29.9805 137.686 30.8058 137.344 31.1875C137.001 31.5703 136.51 31.798 135.812 31.9062V32.4375H140.531V31.9062C140.02 31.9062 139.601 31.8064 139.281 31.5625C138.961 31.3186 138.813 30.9402 138.812 30.4688C138.812 30.028 139.116 29.1011 139.719 27.6562L140.125 26.6562H146.062L147.25 29.5625C147.604 30.4047 147.812 30.9242 147.812 31.0938C147.812 31.4252 147.673 31.6384 147.406 31.75C147.14 31.8616 146.63 31.9062 145.875 31.9062V32.4375H152.031V31.9062C151.483 31.8516 151.086 31.7445 150.812 31.5312C150.539 31.3202 150.317 31.0259 150.156 30.6562L149.438 29L144.219 16.5625H143.75ZM202.125 16.7188V17.25H202.438C203.238 17.25 203.731 17.3309 203.969 17.4688C204.205 17.6077 204.366 17.8556 204.438 18.2188C204.512 18.5808 204.562 19.377 204.562 20.625V28.3125C204.562 29.625 204.512 30.4839 204.438 30.8438C204.366 31.2025 204.197 31.4566 203.938 31.625C203.677 31.7945 203.207 31.875 202.531 31.875H202.125V32.4062H209.25V31.875H208.844C208.133 31.875 207.629 31.7786 207.375 31.5938C207.121 31.4078 206.968 31.1317 206.906 30.75C206.844 30.3672 206.812 29.5506 206.812 28.3125V24.5312H215V28.3125C215 29.6272 214.976 30.4527 214.906 30.8125C214.837 31.1723 214.661 31.4544 214.406 31.625C214.149 31.7945 213.69 31.875 213.031 31.875H212.5V32.4062H219.594V31.875H219.25C218.55 31.875 218.067 31.7786 217.812 31.5938C217.559 31.4089 217.402 31.1317 217.344 30.75C217.285 30.3683 217.25 29.5473 217.25 28.3125V20.625C217.25 19.3234 217.295 18.503 217.375 18.1562C217.457 17.8095 217.606 17.5633 217.844 17.4375C218.083 17.3095 218.605 17.25 219.375 17.25H219.594V16.7188H212.5V17.25H212.906C213.695 17.25 214.203 17.3309 214.438 17.4688C214.672 17.6077 214.837 17.8556 214.906 18.2188C214.976 18.5808 215 19.377 215 20.625V23.75H206.812V20.625C206.812 19.3234 206.855 18.503 206.938 18.1562C207.02 17.8095 207.195 17.5633 207.438 17.4375C207.679 17.3095 208.164 17.25 208.938 17.25H209.25V16.7188H202.125ZM252.75 16.7188V17.25C253.512 17.25 254.012 17.3178 254.25 17.4688C254.487 17.6175 254.653 17.8727 254.719 18.25C254.787 18.6273 254.812 19.4306 254.812 20.625V28.3125C254.812 29.6239 254.78 30.4608 254.719 30.7812C254.656 31.1006 254.508 31.3536 254.281 31.5625C254.055 31.7703 253.585 31.875 252.812 31.875H252.469V32.4062H265.406L265.75 27.5312H265.219C264.941 28.7059 264.543 29.6228 264.062 30.2812C263.582 30.9419 263.091 31.3711 262.562 31.5625C262.03 31.7539 261.355 31.8438 260.531 31.8438H259.375C258.327 31.8438 257.677 31.6708 257.438 31.3438C257.199 31.0167 257.094 29.9197 257.094 28.0625V24.3438H258.781C259.448 24.3438 259.938 24.4103 260.219 24.5C260.499 24.5886 260.698 24.7661 260.844 25.0625C260.989 25.3611 261.062 25.9419 261.062 26.8125H261.594V21.4688H261.062C261.062 22.2377 261.002 22.7666 260.906 23.0312C260.81 23.297 260.613 23.4938 260.312 23.625C260.011 23.7562 259.477 23.8125 258.719 23.8125H257.094V17.25H259.25C260.337 17.25 261.103 17.3183 261.594 17.4375C262.084 17.5578 262.518 17.8241 262.875 18.2812C263.229 18.7395 263.536 19.5323 263.781 20.625H264.312L263.938 16.7188H252.75ZM154.062 16.75V17.2812C154.909 17.2812 155.443 17.3528 155.688 17.4688C155.933 17.5847 156.106 17.842 156.219 18.25C156.331 18.658 156.406 19.452 156.406 20.6562V29C156.406 29.9483 156.353 30.5264 156.281 30.7812C156.208 31.035 155.985 31.2791 155.594 31.5C155.203 31.7209 154.649 31.8516 153.906 31.9062V32.4375H159.719V31.9062C158.89 31.9062 158.29 31.802 157.875 31.5625C157.46 31.3241 157.183 31.0678 157.094 30.7812C157.005 30.4958 156.969 29.9023 156.969 29V18.0938L168.125 32.8125H168.594V19.8125C168.594 19.1409 168.647 18.6884 168.75 18.4062C168.853 18.1252 169.093 17.8564 169.469 17.6562C169.847 17.4561 170.375 17.3359 171.031 17.2812V16.75H165.375V17.2812C165.992 17.2812 166.499 17.3694 166.938 17.5312C167.377 17.6931 167.67 17.9108 167.812 18.1875C167.955 18.4664 168.031 18.9628 168.031 19.6562V29.0312L158.75 16.75H154.062ZM89.875 17.0312C91.7858 17.0312 93.2448 17.6995 94.25 19C95.2552 20.3005 95.75 22.1536 95.75 24.5938C95.75 27.1028 95.2381 28.9834 94.2188 30.25C93.1972 31.5166 91.8202 32.1562 90.0625 32.1562C88.0577 32.1562 86.5644 31.5166 85.5625 30.25C84.5606 28.9834 84.0625 27.1181 84.0625 24.5938C84.0625 22.1077 84.5606 20.2073 85.5625 18.9375C86.5644 17.6677 87.9927 17.0313 89.875 17.0312ZM330.812 17.0312C332.723 17.0312 334.182 17.6995 335.188 19C336.195 20.3005 336.687 22.1536 336.688 24.5938C336.688 27.1028 336.176 28.9834 335.156 30.25C334.135 31.5166 332.757 32.1562 331 32.1562C328.995 32.1562 327.471 31.5166 326.469 30.25C325.467 28.9834 324.969 27.1181 324.969 24.5938C324.969 22.1077 325.467 20.2073 326.469 18.9375C327.471 17.6677 328.93 17.0313 330.812 17.0312ZM106.219 17.125C108.044 17.125 109.237 17.4611 109.781 18.125C110.325 18.7889 110.594 19.6777 110.594 20.7812C110.594 21.4156 110.503 21.9419 110.344 22.375C110.183 22.807 109.965 23.1717 109.688 23.4375C109.41 23.7044 109.043 23.8934 108.594 24.0312C108.145 24.1702 107.609 24.2495 107 24.2812C106.391 24.3119 105.821 24.3295 105.25 24.3438V17.1562C105.615 17.1245 105.937 17.125 106.219 17.125ZM228.438 19.4062L231.188 26.0312H225.719L228.438 19.4062ZM143.094 19.4375L145.844 26.0938H140.344L143.094 19.4375ZM279.125 21.0938C280.721 23.1784 282.637 25.8878 284.844 29.25C283.6 30.697 282.245 31.4375 280.781 31.4375C279.463 31.4375 278.262 30.8683 277.219 29.7188C276.175 28.5703 275.656 27.323 275.656 26.0312C275.656 25.1934 275.958 24.3355 276.562 23.4375C277.164 22.5395 278.025 21.7653 279.125 21.0938ZM342.406 29.4375C341.935 29.4375 341.523 29.6006 341.188 29.9375C340.85 30.2744 340.687 30.6859 340.688 31.1562C340.688 31.6178 340.856 32.0272 341.188 32.375C341.518 32.7228 341.926 32.875 342.406 32.875C342.878 32.875 343.283 32.7108 343.625 32.375C343.967 32.037 344.125 31.6375 344.125 31.1562C344.125 30.6859 343.961 30.2744 343.625 29.9375C343.286 29.6006 342.889 29.4375 342.406 29.4375Z" fill="#808495"/>
</svg>
