<svg width="24" height="24" viewBox="0 0 24 24" fill="none" xmlns="http://www.w3.org/2000/svg">
<g clip-path="url(#clip0_3272_52379)">
<path d="M13.5374 11.8277C13.5374 15.5984 10.5069 18.6552 6.76884 18.6552C3.03073 18.6552 0 15.5977 0 11.8277C0 8.05767 3.0305 5 6.76884 5C10.5072 5 13.5374 8.05698 13.5374 11.8277Z" fill="#262730"/>
<path d="M20.9642 11.8281C20.9642 15.3775 19.4489 18.2559 17.5797 18.2559C15.7106 18.2559 14.1953 15.3775 14.1953 11.8281C14.1953 8.27883 15.7103 5.40039 17.5795 5.40039C19.4487 5.40039 20.9639 8.2779 20.9639 11.8281" fill="#262730"/>
<path d="M24.0015 11.8286C24.0015 15.0079 23.4686 17.5868 22.8112 17.5868C22.1537 17.5868 21.6211 15.0086 21.6211 11.8286C21.6211 8.64856 22.1539 6.07031 22.8112 6.07031C23.4684 6.07031 24.0015 8.64832 24.0015 11.8286Z" fill="#262730"/>
</g>
<defs>
<clipPath id="clip0_3272_52379">
<rect width="24" height="24" fill="white"/>
</clipPath>
</defs>
</svg>
