<svg width="200" height="56" viewBox="0 0 200 56" fill="none" xmlns="http://www.w3.org/2000/svg">
<g clip-path="url(#clip0)">
<path fill-rule="evenodd" clip-rule="evenodd" d="M51.2423 25.8611H55.8515C57.6498 25.8611 58.3337 26.4817 58.3337 28.0016C58.3337 29.4651 57.6495 30.0849 55.8515 30.0849H51.2423V25.8611ZM44.1019 41.2341H51.2427V34.9829H58.8913C63.9553 34.9829 65.7786 31.9998 65.7786 28.143C65.7786 23.666 63.9038 21.1326 58.8397 21.1326H44.1019V41.2341ZM68.1335 21.1326H87.3522V26.0303H75.2743V28.7331H86.4926V33.6329H75.2743V36.3354H87.3522V41.2341H68.1335V21.1326ZM97.4819 25.8611H102.091C103.889 25.8611 104.573 26.4817 104.573 28.0016C104.573 29.4651 103.889 30.0849 102.091 30.0849H97.4819V25.8611ZM90.3411 41.2341H97.4819V34.9829H105.129C110.195 34.9829 112.018 31.9998 112.018 28.143C112.018 23.666 110.143 21.1326 105.078 21.1326H90.3411V41.2341ZM118.93 32.7034C115.436 32.1112 113.994 29.8591 113.994 27.0444C113.994 21.8351 118.577 20.4287 124.451 20.4287C132.502 20.4287 135.82 22.7646 136.074 27.0164H127.767C127.767 26.1997 127.337 25.692 126.68 25.4107C126.046 25.1019 125.237 24.9894 124.451 24.9894C122.324 24.9894 121.59 25.5799 121.59 26.4253C121.59 26.9874 121.817 27.3547 122.526 27.4668L131.059 28.8739C134.656 29.4651 136.884 31.3233 136.884 34.729C136.884 39.6294 133.288 41.938 125.261 41.938C119.766 41.938 113.764 41.0936 113.739 35.1811H122.349C122.373 35.856 122.602 36.3063 123.109 36.6163C123.639 36.8982 124.425 37.0393 125.539 37.0393C127.767 37.0393 128.376 36.3631 128.376 35.4056C128.376 34.8145 128.046 34.2237 127.085 34.0556L118.93 32.7034ZM139.213 21.1326H146.354V41.2341H139.213V21.1326ZM172.818 33.4073C172.362 36.0538 171.55 38.1936 169.777 39.6571C168.031 41.1213 165.296 41.938 160.941 41.938C156.611 41.938 148.584 41.5994 148.584 31.1839C148.584 20.7663 156.611 20.4284 160.941 20.4284C165.245 20.4284 171.88 21.0472 172.818 29.0157H164.765C164.562 27.5785 163.7 25.4955 160.941 25.4955C158.027 25.4955 156.179 27.1001 156.179 31.1835C156.179 35.2659 157.978 36.8695 160.586 36.8695C162.84 36.8695 164.182 35.828 164.765 33.407L172.818 33.4073ZM182.161 31.1842C182.161 27.1005 184.01 25.4962 186.922 25.4962C189.834 25.4962 191.683 27.1008 191.683 31.1842C191.683 35.2666 189.834 36.8702 186.922 36.8702C184.01 36.8698 182.161 35.2662 182.161 31.1842ZM174.563 31.1842C174.563 41.5994 182.591 41.9383 186.922 41.9383C191.252 41.9383 199.28 41.5997 199.28 31.1842C199.28 20.7666 191.252 20.4287 186.922 20.4287C182.591 20.4287 174.563 20.7663 174.563 31.1842ZM33.3118 30.0503C33.7728 20.4062 25.456 9.54553 14.1176 8.20308L14.137 8.07129C25.3148 8.07129 33.8839 18.4193 33.8839 26.583C33.8732 28.2824 33.739 29.3353 33.4996 30.0998L33.3118 30.0503ZM32.6345 31.2762C31.8908 32.1849 30.9555 33.0998 29.8596 33.9684C27.8437 22.374 19.3238 12.2356 13.3002 9.27642L13.1712 9.36635C19.229 14.338 26.4542 23.9939 29.264 34.4232C27.8308 35.476 26.2827 36.3626 24.6493 37.0659C18.9329 30.547 13.6036 17.9748 11.8862 9.99693L11.7115 10.0495C11.7502 17.7936 17.2484 30.94 23.9534 37.3548C22.4155 37.9633 20.8168 38.405 19.1847 38.6723C12.7575 36.1261 8.1826 27.9711 8.1826 19.6172C8.1826 14.1637 9.84536 10.7901 10.167 10.0997L10.0301 10.0454C9.64093 10.6341 7.20508 14.0059 7.20508 19.8936C7.20508 29.3364 11.862 36.554 18.0446 38.8269C15.8337 39.0701 13.5983 38.9652 11.4199 38.516L11.3739 38.6598C12.0353 38.9034 14.2791 39.8453 17.7022 39.8453C25.4445 39.8453 30.6784 35.0348 32.7853 31.3782L32.6345 31.2762Z" fill="#808495"/>
<path fill-rule="evenodd" clip-rule="evenodd" d="M16.9281 4.66357C11.0588 4.66357 4.17676 8.8995 4.17676 12.7715C4.17676 14.2693 5.54688 15.5346 8.38259 15.5346C14.9655 15.5346 21.0814 11.0119 21.0814 7.49514C21.0814 5.64456 19.3041 4.66357 16.9281 4.66357ZM19.2713 7.38583C19.2713 10.3502 13.5787 13.9739 8.82016 13.9739C6.71776 13.9739 5.58181 13.1465 5.58181 11.7812C5.58181 8.77429 11.339 5.21218 15.8025 5.21218C18.7126 5.21218 19.2713 6.69299 19.2713 7.38583Z" fill="#808495"/>
<path fill-rule="evenodd" clip-rule="evenodd" d="M1.83837 14.5642C1.67337 14.8496 1.0127 16.1433 1.0127 17.4688C1.0127 19.9271 3.49663 22.2094 8.06531 22.2094C16.8544 22.2094 27.0087 15.74 27.0087 9.73474C27.0087 7.03911 24.457 5.57352 22.6853 5.27051L22.6521 5.37566C23.2031 5.55 25.2218 6.48843 25.2218 8.8897C25.2218 13.6746 16.2563 20.1942 7.32577 20.1942C3.90687 20.1942 1.75293 18.5065 1.75293 16.0482C1.75293 15.2706 1.91481 14.7583 1.9577 14.6099L1.83837 14.5642Z" fill="#808495"/>
<path fill-rule="evenodd" clip-rule="evenodd" d="M30.6322 10.1836C30.8733 10.3666 32.3209 11.5731 32.3209 13.8547C32.3209 21.634 20.1319 29.2837 9.35602 29.2837C2.92984 29.2837 0.000383794 26.1107 0.130097 23.2933H0.245283C0.497101 24.7565 2.58359 27.3747 8.20797 27.3747C18.9974 27.3747 31.0442 19.4593 31.0442 12.5243C31.0442 11.3348 30.7211 10.5935 30.5384 10.2638L30.6322 10.1836Z" fill="#808495"/>
<path fill-rule="evenodd" clip-rule="evenodd" d="M34.7056 17.4468C34.7561 17.6125 35.0187 18.3572 35.0187 19.5236C35.0187 28.1774 22.6835 35.5859 11.9553 35.5859C6.43364 35.5859 3.55019 32.9038 2.94141 31.8145L3.03964 31.7419C4.56749 33.0781 7.57685 34.0933 11.0888 34.0933C20.5638 34.0933 34.7018 26.8847 34.5756 17.4783L34.7056 17.4468Z" fill="#808495"/>
</g>
<defs>
<clipPath id="clip0">
<rect width="199.279" height="55.3199" fill="white"/>
</clipPath>
</defs>
</svg>
