<svg width="33" height="33" viewBox="0 0 33 33" fill="none" xmlns="http://www.w3.org/2000/svg">
<path d="M16.3 32.3C25.1366 32.3 32.3 25.1366 32.3 16.3C32.3 7.46345 25.1366 0.300003 16.3 0.300003C7.46349 0.300003 0.300049 7.46345 0.300049 16.3C0.300049 25.1366 7.46349 32.3 16.3 32.3Z" fill="#FF4500"/>
<path d="M26.9707 16.3C26.923 15.0114 25.8412 14.0052 24.5487 14.0489C23.976 14.0688 23.4311 14.3035 23.0175 14.6972C21.196 13.4563 19.0563 12.7763 16.8569 12.7285L17.8949 7.73723L21.3192 8.45709C21.4147 9.33604 22.2022 9.97238 23.0811 9.87693C23.9601 9.78148 24.5964 8.994 24.5009 8.11506C24.4055 7.23611 23.618 6.59977 22.7391 6.69522C22.234 6.74693 21.7806 7.04123 21.53 7.47872L17.6086 6.69522C17.3421 6.63557 17.0756 6.80261 17.016 7.07305C17.016 7.07703 17.016 7.07703 17.016 7.081L15.8348 12.6331C13.6076 12.6689 11.44 13.3529 9.59466 14.6018C8.65606 13.7188 7.17656 13.7626 6.29364 14.7052C5.41072 15.6438 5.45447 17.1233 6.39705 18.0062C6.57999 18.1772 6.79078 18.3244 7.02543 18.4278C7.00952 18.6624 7.00952 18.8971 7.02543 19.1317C7.02543 22.7151 11.2014 25.6303 16.3518 25.6303C21.5022 25.6303 25.6782 22.7191 25.6782 19.1317C25.6941 18.8971 25.6941 18.6624 25.6782 18.4278C26.4816 18.0261 26.9867 17.1988 26.9707 16.3ZM10.9707 17.9028C10.9707 17.0199 11.6906 16.3 12.5735 16.3C13.4565 16.3 14.1763 17.0199 14.1763 17.9028C14.1763 18.7857 13.4565 19.5056 12.5735 19.5056C11.6866 19.4976 10.9707 18.7857 10.9707 17.9028ZM20.2653 22.3015C19.1278 23.1566 17.7358 23.5941 16.312 23.5344C14.8882 23.5941 13.4962 23.1566 12.3588 22.3015C12.2076 22.1185 12.2355 21.8441 12.4184 21.693C12.5775 21.5617 12.8042 21.5617 12.9673 21.693C13.9297 22.3969 15.103 22.7549 16.2961 22.6992C17.4893 22.7628 18.6665 22.4208 19.6409 21.7248C19.8159 21.5538 20.1022 21.5578 20.2733 21.7328C20.4443 21.9078 20.4403 22.1941 20.2653 22.3651V22.3015ZM19.979 19.5612C19.096 19.5612 18.3762 18.8414 18.3762 17.9585C18.3762 17.0755 19.096 16.3557 19.979 16.3557C20.8619 16.3557 21.5817 17.0755 21.5817 17.9585C21.6175 18.8414 20.9295 19.5851 20.0466 19.6209C20.0187 19.6209 19.9949 19.6209 19.967 19.6209L19.979 19.5612Z" fill="white"/>
</svg>
