<svg width="121" height="16" viewBox="0 0 121 16" fill="none" xmlns="http://www.w3.org/2000/svg">
<path d="M102.52 6.19287V15.6285H105.545V9.34626H116.558V15.6285H119.582V6.20923L102.52 6.19287Z" fill="#808495"/>
<path d="M105.209 3.14079H116.844C118.46 2.81956 119.662 1.39336 120.001 0.0136719H102.053C102.388 1.39379 103.608 2.81956 105.209 3.14079Z" fill="#808495"/>
<path d="M93.3548 15.6347C94.8804 14.9879 95.7012 13.8692 96.0155 12.5601H82.4438L82.4525 0.0214844L79.4102 0.0300919V15.6347H93.3548" fill="#808495"/>
<path d="M56.7868 3.09874H67.5324C69.1523 2.62808 70.5126 1.39394 70.8442 0.0258789H53.7746V9.24749H67.7455V12.4836L56.7868 12.4922C55.0695 12.971 53.6132 14.1242 52.8867 15.6473L53.7746 15.6309H70.7473V6.18151H56.7868V3.09874" fill="#808495"/>
<path d="M30.2597 3.12841H41.891C43.5093 2.80588 44.712 1.38098 45.0492 0H27.1016C27.4366 1.38098 28.6569 2.80588 30.2597 3.12841" fill="#808495"/>
<path d="M30.2597 9.29607H41.891C43.5093 8.97698 44.712 7.55079 45.0492 6.16895H27.1016C27.4366 7.55122 28.6569 8.97698 30.2597 9.29607" fill="#808495"/>
<path d="M30.2597 15.6329H41.891C43.5093 15.3113 44.712 13.8855 45.0492 12.5054H27.1016C27.4366 13.8859 28.6569 15.3113 30.2597 15.6329" fill="#808495"/>
<path d="M0 0.0379587C0.349659 1.40172 1.53041 2.79562 3.15038 3.14484H8.04647L8.29623 3.24346V15.5982H11.3536V3.24346L11.6313 3.14484H16.5317C18.1698 2.72284 19.3251 1.40172 19.6688 0.0379587V0.0078125H0V0.0379587Z" fill="#808495"/>
</svg>
