<svg width="70" height="24" viewBox="0 0 70 24" fill="none" xmlns="http://www.w3.org/2000/svg">
<g clip-path="url(#clip0)">
<path d="M3.97751 17.1405C4.26966 17.9158 4.67414 18.5787 5.19102 19.1292C5.7079 19.6798 6.32025 20.1012 7.02807 20.3933C7.73596 20.6855 8.50561 20.8315 9.33709 20.8315C10.1461 20.8315 10.9045 20.6798 11.6124 20.3764C12.3203 20.073 12.9382 19.6461 13.4663 19.0955C13.9944 18.5449 14.4045 17.8877 14.6967 17.1236C14.9888 16.3596 15.1349 15.5057 15.1349 14.5618V0H18.6742V23.5955H15.1686V21.4045C14.3821 22.2359 13.455 22.8764 12.3877 23.3259C11.3202 23.7753 10.1686 24 8.93262 24C7.67413 24 6.5 23.7809 5.41008 23.3427C4.32023 22.9045 3.37635 22.2809 2.57865 21.4719C1.78096 20.6629 1.15168 19.6911 0.691037 18.5562C0.230321 17.4214 0 16.1574 0 14.764V0H3.53932V14.5618C3.53932 15.5057 3.68536 16.3652 3.97751 17.1405Z" fill="#808495"/>
<path d="M24.7756 0V8.59549C25.5621 7.80899 26.4722 7.18545 27.5059 6.72473C28.5396 6.26402 29.6632 6.0337 30.8767 6.0337C32.1352 6.0337 33.3148 6.26961 34.416 6.74151C35.5171 7.21342 36.4721 7.85389 37.2811 8.66292C38.0902 9.47195 38.7306 10.4269 39.2025 11.5281C39.6745 12.6292 39.9104 13.7978 39.9104 15.0337C39.9104 16.2696 39.6745 17.4326 39.2025 18.5224C38.7306 19.6123 38.0902 20.5618 37.2811 21.3707C36.4721 22.1797 35.5171 22.8202 34.416 23.2921C33.3148 23.764 32.1351 23.9999 30.8767 23.9999C29.6632 23.9999 28.534 23.7696 27.4891 23.3089C26.4441 22.8482 25.5284 22.2246 24.7419 21.4381V23.5954H21.3711V0H24.7756ZM25.1632 17.3596C25.4665 18.0787 25.8879 18.7079 26.4273 19.2472C26.9666 19.7866 27.5958 20.2136 28.3149 20.5282C29.034 20.8428 29.8093 21.0001 30.6408 21.0001C31.4498 21.0001 32.2138 20.8428 32.9329 20.5282C33.6519 20.2136 34.2755 19.7866 34.8037 19.2472C35.3318 18.708 35.7531 18.0787 36.0677 17.3596C36.3823 16.6405 36.5396 15.8652 36.5396 15.0337C36.5396 14.2023 36.3823 13.4213 36.0677 12.691C35.7531 11.9607 35.3318 11.3259 34.8037 10.7865C34.2756 10.2473 33.652 9.82586 32.9329 9.52252C32.2137 9.21918 31.4497 9.0674 30.6408 9.0674C29.8318 9.0674 29.0678 9.21911 28.3487 9.52252C27.6296 9.82594 27.0004 10.2473 26.461 10.7865C25.9217 11.3259 25.4947 11.9607 25.1801 12.691C24.8655 13.4213 24.7082 14.2023 24.7082 15.0337C24.7081 15.8652 24.8598 16.6405 25.1632 17.3596Z" fill="#808495"/>
<path d="M41.8303 11.5617C42.2797 10.483 42.8978 9.53361 43.6842 8.71339C44.4706 7.89317 45.4033 7.24711 46.482 6.7752C47.5606 6.3033 48.7292 6.06738 49.9876 6.06738C51.2235 6.06738 52.3696 6.29211 53.4258 6.74149C54.482 7.19094 55.3921 7.81456 56.1561 8.61233C56.9202 9.41002 57.5158 10.3539 57.9426 11.4438C58.3696 12.5337 58.5831 13.7191 58.5831 15V16.1124H44.5944C44.7068 16.809 44.9315 17.4551 45.2685 18.0505C45.6057 18.646 46.0269 19.1629 46.5325 19.6011C47.0382 20.0393 47.6112 20.382 48.2517 20.6291C48.8921 20.8763 49.5718 21 50.291 21C52.336 21 53.9877 20.1572 55.2461 18.4718L57.7068 20.292C56.8528 21.4381 55.7967 22.337 54.5383 22.9887C53.2798 23.6403 51.8641 23.9662 50.2911 23.9662C49.0101 23.9662 47.8136 23.7414 46.7012 23.292C45.5888 22.8426 44.6225 22.2133 43.8023 21.4043C42.9821 20.5953 42.3361 19.6459 41.8641 18.556C41.3922 17.4662 41.1563 16.2807 41.1563 14.9999C41.1561 13.7864 41.3809 12.6403 41.8303 11.5617ZM46.5663 10.2302C45.6112 11.0279 44.9764 12.0897 44.6618 13.4156H55.145C54.8528 12.0897 54.2292 11.0279 53.2741 10.2302C52.3191 9.43247 51.2011 9.03359 49.9202 9.03359C48.6393 9.03359 47.5213 9.43247 46.5663 10.2302Z" fill="#808495"/>
<path d="M64.9539 10.6179C64.2348 11.4044 63.8752 12.4718 63.8752 13.8202V23.5955H60.4707V6.40446H63.8415V8.52806C64.2685 7.83143 64.8247 7.28084 65.51 6.87636C66.1954 6.47181 67.01 6.26953 67.9539 6.26953H69.1336V9.43809H67.7179C66.5944 9.43816 65.673 9.83138 64.9539 10.6179Z" fill="#808495"/>
</g>
<defs>
<clipPath id="clip0">
<rect width="69.134" height="24" fill="white"/>
</clipPath>
</defs>
</svg>
