<svg width="186" height="42" viewBox="0 0 186 42" fill="none" xmlns="http://www.w3.org/2000/svg">
<g clip-path="url(#clip0)">
<path d="M181.491 0L171.369 21.6204L167.563 13.4283H163.446L169.706 26.8285H173.033L185.579 0H181.491Z" fill="#808495"/>
<path d="M138.071 40.1442H146.219V25.252C146.219 21.8457 148.193 19.4528 151.125 19.4528C153.944 19.4528 155.411 21.4234 155.411 24.2667V40.1442H163.559V22.7184C163.559 16.8065 160.006 12.6401 154.255 12.6401C150.589 12.6401 148.023 14.2166 146.106 17.088H145.937V13.4283H138.042L138.071 40.1442ZM122.056 12.6964C113.541 12.6964 107.846 18.8053 107.846 26.8566C107.846 34.8517 113.541 41.0169 122.056 41.0169C130.571 41.0169 136.266 34.8517 136.266 26.8566C136.294 18.8053 130.571 12.6964 122.056 12.6964ZM122 34.9925C118.137 34.9925 116.079 31.755 116.079 26.8566C116.079 21.902 118.109 18.7208 122 18.7208C125.862 18.7208 128.005 21.902 128.005 26.8566C128.033 31.755 125.891 34.9925 122 34.9925ZM84.6132 40.1442H107.507V33.7256H94.5378V33.5567L106.944 19.678V13.4002H84.6132V19.8469H97.1599V20.0158L84.6132 34.0072V40.1442ZM74.1529 40.1442H82.3576V13.4283H74.1529V40.1442ZM55.1213 40.1442H63.2978V27.8701C63.2978 22.2961 66.653 19.8187 71.7563 20.5225H71.9255V13.4846C71.5025 13.3157 71.0232 13.2876 70.262 13.2876C67.0759 13.2876 64.9331 14.7515 63.1005 17.8763H62.9313V13.4283H55.1213V40.1442ZM40.1216 35.0206C36.5127 35.0206 34.3135 32.684 33.8905 29.0806H53.1759C53.2322 23.3377 51.7097 18.749 48.5237 15.8775C46.2681 13.7943 43.3076 12.6401 39.5295 12.6401C31.4658 12.6401 25.8832 18.749 25.8832 26.744C25.8832 34.7954 31.212 40.9324 40.0652 40.9324C43.4204 40.9324 46.0707 40.0316 48.2699 38.5396C50.6101 36.9349 52.3018 34.5702 52.7529 32.2336H44.9148C44.1535 33.979 42.5182 35.0206 40.1216 35.0206ZM39.6987 18.4675C42.5746 18.4675 44.5482 20.607 44.8866 23.7318H33.9469C34.5954 20.5788 36.3153 18.4675 39.6987 18.4675ZM9.58654 40.1442H18.1578L27.4621 13.4283H19.2574L14.0413 30.6008H13.9286L8.7125 13.4283H0.282227L9.58654 40.1442ZM74.1529 3.91309H82.3576V11.1762H74.1529V3.91309Z" fill="#808495"/>
</g>
<defs>
<clipPath id="clip0">
<rect width="185.579" height="41.1013" fill="white"/>
</clipPath>
</defs>
</svg>
