<svg width="200" height="48" viewBox="0 0 200 48" fill="none" xmlns="http://www.w3.org/2000/svg">
<g clip-path="url(#clip0)">
<path d="M115.582 25.1859C115.582 20.512 113.562 16.3823 106.731 16.3823C103.226 16.3823 100.442 17.3718 98.9322 18.2379L100.039 21.9877C101.428 21.124 103.646 20.4128 105.739 20.4128C109.198 20.4079 109.764 22.3458 109.764 23.5917V23.8917C102.215 23.8795 97.4424 26.4633 97.4424 31.7251C97.4424 34.9403 99.8653 37.9547 104.1 37.9547C106.684 37.9547 108.868 36.9217 110.172 35.2911H110.299C110.299 35.2911 111.159 38.8547 115.914 37.4926C115.673 36 115.582 34.4274 115.582 32.5162V25.1859ZM109.95 30.1212C109.95 30.4986 109.918 30.8905 109.806 31.2268C109.371 32.6662 107.872 33.871 106.005 33.871C104.43 33.871 103.194 32.988 103.194 31.1373C103.194 28.3068 106.35 27.5278 109.95 27.5471" fill="#808495"/>
<path d="M0 10.0229C0 10.0229 4.93118 30.0059 5.71523 33.2428C6.63844 37.0265 8.29196 38.4248 13.0645 37.4934L16.1468 25.1021C16.9259 22.0321 17.4558 19.8306 17.959 16.7025H18.0445C18.3937 19.862 18.8969 22.0321 19.5344 25.1118C19.5344 25.1118 20.7922 30.7413 21.4444 33.6904C22.0793 36.6394 23.8672 38.4998 28.5493 37.4934L35.8863 10.0229H29.9634L27.4454 21.9063C26.7786 25.3488 26.1728 28.0608 25.7014 31.2155H25.616C25.191 28.0947 24.6512 25.494 23.9576 22.1216L21.3491 10.0229H15.1698L12.3854 21.8119C11.5916 25.4117 10.8492 28.2979 10.3826 31.3534H10.3021C9.82093 28.4866 9.16881 24.836 8.47756 21.3716C8.47756 21.3716 6.82404 12.9309 6.24034 10.0229" fill="#808495"/>
<path d="M52.3927 25.1859C52.3927 20.512 50.3678 16.3823 43.5364 16.3823C40.0414 16.3823 37.2522 17.3718 35.7428 18.2379L36.8491 21.9877C38.234 21.124 40.4493 20.4128 42.5498 20.4128C46.0082 20.4079 46.5748 22.3458 46.5748 23.5917V23.8917C39.0254 23.8795 34.248 26.4633 34.248 31.7251C34.248 34.9403 36.6807 37.9547 40.8963 37.9547C43.5047 37.9547 45.6688 36.9217 46.973 35.2911H47.1048C47.1048 35.2911 47.9694 38.8547 52.7199 37.4926C52.4757 36 52.3927 34.4274 52.3927 32.5162V25.1859ZM46.7556 30.1212C46.7556 30.4986 46.7239 30.8905 46.6164 31.2268C46.1767 32.6662 44.6771 33.871 42.8063 33.871C41.2406 33.871 39.9999 32.988 39.9999 31.1373C39.9999 28.3068 43.1554 27.5278 46.7556 27.5471" fill="#808495"/>
<path d="M55.4658 10.0229V37.4838H61.1029V31.6606V10.0229H55.4658Z" fill="#808495"/>
<path d="M132.883 10.0229V30.2841C132.883 33.0807 133.413 35.0306 134.553 36.2258C135.555 37.2733 137.194 37.9555 139.145 37.9555C140.821 37.9555 142.459 37.6362 143.234 37.358L143.165 32.9961C142.586 33.1291 141.925 33.2428 141.016 33.2428C139.091 33.2428 138.456 32.0356 138.456 29.5245V21.7684H143.366V16.521H138.456V10.0229" fill="#808495"/>
<path d="M118.313 16.8591V37.4928H124.141V26.9255C124.141 26.357 124.178 25.8659 124.268 25.4111C124.703 23.183 126.41 21.7725 128.869 21.7725C129.556 21.7725 130.022 21.8475 130.54 21.9274V16.518C130.105 16.4405 129.81 16.3994 129.275 16.3994C127.094 16.3994 124.622 17.7711 123.579 20.7589H123.435V16.8591" fill="#808495"/>
<path d="M64.376 16.8591V37.4928H70.0545V25.3821C70.0545 24.8135 70.118 24.2329 70.3207 23.7079C70.7824 22.4814 71.9279 21.0613 73.767 21.0613C76.053 21.0613 77.1326 22.9725 77.1326 25.7304V37.4928H82.7966V25.2369C82.7966 24.7022 82.8724 24.0466 83.031 23.5725C83.4853 22.1814 84.7261 21.0613 86.4407 21.0613C88.7512 21.0613 89.8698 22.9314 89.8698 26.1828V37.4928H95.5288V25.3264C95.5288 18.9348 92.2462 16.3994 88.5191 16.3994C86.8803 16.3994 85.5761 16.7986 84.4036 17.5147C83.412 18.1171 82.5426 18.9662 81.7634 20.0767H81.678C80.7816 17.8558 78.6762 16.3994 75.926 16.3994C72.3992 16.3994 70.797 18.163 69.8543 19.6533H69.7687V16.8591" fill="#808495"/>
<path d="M173.864 15.9331C174.977 15.9331 175.915 15.3573 176.037 14.6171L177.141 2.23054C177.141 1.00399 175.683 0 173.864 0C172.034 0 170.586 1.00399 170.586 2.23054L171.7 14.6171C171.817 15.3573 172.75 15.9331 173.864 15.9331Z" fill="#808495"/>
<path d="M167.09 19.8089C167.642 18.8413 167.61 17.7671 167.014 17.2881L156.707 10.1489C155.635 9.5296 154.03 10.2675 153.112 11.8303C152.196 13.3907 152.382 15.1422 153.432 15.7495L164.843 20.9895C165.573 21.2605 166.528 20.7573 167.09 19.7993" fill="#808495"/>
<path d="M180.635 19.7991C181.219 20.7571 182.174 21.2603 182.885 21.0038L194.296 15.7492C195.356 15.1299 195.515 13.3953 194.618 11.8349C193.702 10.2721 192.088 9.53906 191.018 10.1463L180.709 17.2782C180.137 17.7645 180.096 18.8435 180.647 19.8087" fill="#808495"/>
<path d="M173.864 31.4053C174.977 31.4053 175.915 31.9811 176.037 32.7213L177.141 45.1079C177.141 46.3344 175.683 47.3287 173.864 47.3287C172.034 47.3287 170.586 46.3344 170.586 45.1079L171.7 32.7213C171.817 31.9811 172.75 31.4053 173.864 31.4053Z" fill="#808495"/>
<path d="M180.635 27.5405C181.219 26.5801 182.174 26.0672 182.885 26.3454L194.296 31.5903C195.356 32.1975 195.515 33.9466 194.618 35.5095C193.702 37.0602 192.088 37.7981 191.018 37.1908L180.709 30.0492C180.137 29.5678 180.096 28.4937 180.647 27.5405" fill="#808495"/>
<path d="M167.09 27.5297C167.642 28.495 167.61 29.5667 167.014 30.0505L156.707 37.1801C155.635 37.7994 154.03 37.0591 153.112 35.5084C152.196 33.9479 152.382 32.1964 153.432 31.5892L164.843 26.3443C165.573 26.0685 166.528 26.5765 167.09 27.5297Z" fill="#808495"/>
<path d="M197.636 36.1039H197.777C197.97 36.1039 198.048 36.1644 198.07 36.3168C198.112 36.4862 198.134 36.5999 198.175 36.6483H198.542C198.51 36.612 198.469 36.52 198.447 36.3071C198.405 36.1233 198.31 36.0193 198.175 35.983V35.9491C198.361 35.908 198.469 35.7846 198.469 35.6322C198.469 35.4943 198.405 35.3951 198.342 35.3322C198.219 35.2741 198.102 35.2282 197.843 35.2282C197.614 35.2282 197.445 35.2475 197.311 35.279V36.6483H197.636V36.1039ZM197.645 35.4798L197.812 35.458C198.007 35.458 198.112 35.5475 198.112 35.6733C198.112 35.8136 197.97 35.8789 197.79 35.8789H197.645V35.4798ZM197.853 34.5508C197.052 34.5508 196.417 35.1701 196.417 35.9298C196.417 36.7087 197.052 37.3281 197.853 37.3281C198.664 37.3281 199.279 36.7087 199.279 35.9298C199.279 35.1701 198.664 34.5508 197.853 34.5508ZM197.853 34.829C198.469 34.829 198.925 35.3225 198.925 35.9298C198.925 36.5418 198.469 37.0499 197.853 37.0402C197.238 37.0402 196.771 36.5418 196.771 35.9298C196.771 35.3225 197.238 34.829 197.843 34.829" fill="#808495"/>
</g>
<defs>
<clipPath id="clip0">
<rect width="199.279" height="47.3288" fill="white"/>
</clipPath>
</defs>
</svg>
