<svg width="75" height="75" viewBox="0 0 75 75" fill="none" xmlns="http://www.w3.org/2000/svg">
<g clip-path="url(#clip0)">
<path d="M0 74.7297H74.7297V0H0V74.7297Z" fill="#808495"/>
<path d="M26.9339 23.5223V27.1945H27.7738C28.8337 27.1945 29.3145 26.679 29.3145 25.2368V25.0109H30.5482V30.7103H29.3145V30.4671C29.3145 29.0364 28.8337 28.492 27.7738 28.492H26.9339V32.5986H30.4555C32.0599 32.5986 32.6391 31.5386 32.8303 29.5114H34.1103V33.9076H22.5435V32.5986H23.5224C24.1305 32.5986 24.4549 32.4306 24.4549 31.3706V24.5186C24.4549 23.754 24.1074 23.5223 23.2907 23.5223H22.9316C22.0917 23.5223 21.6921 23.7193 21.3967 24.5939L18.2052 33.9076H15.7783L13.9306 27.8374H13.8959L11.8455 33.9076H9.38966L6.07659 24.1479C5.93172 23.6671 5.68272 23.5223 5.01084 23.5223H4.76758V22.2191H9.87621V23.5223H9.13482C8.74675 23.5223 8.59036 23.754 8.59036 23.9857C8.59036 24.1595 8.65412 24.3796 8.74675 24.6228L10.9593 31.1447H10.994L13.1024 25.0109L12.807 24.1768C12.6274 23.6556 12.2741 23.5223 11.7586 23.5223H11.3416V22.2191H16.6182V23.5223H15.6856C15.3265 23.5223 15.1875 23.6787 15.1875 23.9104C15.1875 24.09 15.2744 24.339 15.3324 24.507L17.2669 31.0289H17.3016L19.549 24.6576C19.6185 24.4491 19.6821 24.2753 19.6821 24.0552C19.6821 23.7772 19.549 23.5223 18.9292 23.5223H18.0777V22.2191H34.1103V26.2157H32.7955C32.529 24.5244 32.3784 23.5223 30.0326 23.5223H26.9339ZM46.1463 33.9076V29.5114H44.7968C44.6172 31.5212 44.2523 32.5986 42.422 32.5986H39.7634V24.3332C39.7634 23.6845 40.0299 23.5223 40.806 23.5223H41.7964V22.2191H35.3382V23.5223H36.3577C37.0643 23.5223 37.3018 23.754 37.3018 24.2869V31.8166C37.3018 32.4306 36.9658 32.5986 36.4677 32.5986H35.3382V33.9076H46.1463ZM58.1418 33.9076V29.5114H56.7864C56.6068 31.5212 56.2304 32.5986 54.4232 32.5986H51.7589V24.3332C51.7589 23.6845 52.0253 23.5223 52.8014 23.5223H53.7861V22.2191H47.3221V23.5223H48.3473C49.0597 23.5223 49.2972 23.754 49.2972 24.2869V31.8166C49.2972 32.4306 48.9555 32.5986 48.4632 32.5986H47.3221V33.9076H58.1418ZM67.0384 23.0995C66.9284 22.9895 65.851 21.8716 63.7485 21.8716C61.5417 21.8716 59.3118 22.9895 59.3118 25.3874C59.3118 27.5594 61.0436 28.5499 63.0361 28.9785C63.6964 29.1175 64.0903 29.1928 64.6926 29.3202C66.187 29.6388 67.1832 30.0906 67.1832 31.1274C67.1832 31.9151 66.3492 32.7607 64.6984 32.7607C62.3932 32.7607 61.0262 31.4749 60.7424 29.5114H59.3871V33.9076H60.586L60.9741 32.8592C61.2579 33.1083 62.3816 34.2551 64.5189 34.2551C67.2411 34.2551 69.2974 33.0446 69.2974 30.6524C69.2974 28.3356 67.3802 27.3393 65.0401 26.8702C64.6231 26.7659 64.2408 26.7022 63.8122 26.6037C62.3584 26.291 61.4259 25.9318 61.4259 24.8893C61.4259 23.9857 62.3816 23.3659 63.818 23.3659C65.9785 23.3659 66.8125 24.7387 67.2585 26.2157H68.5733V22.2191H67.6234L67.0384 23.0995ZM13.392 52.1295V50.8147H12.5116C11.6949 50.8147 11.3937 50.5715 11.3937 49.9112V46.7255H12.1177C13.2124 46.7255 13.6874 47.2005 13.6874 48.44V48.828H14.9153V43.4472H13.6874V43.6789C13.6874 44.5882 13.3572 45.4223 12.222 45.4223H11.3937V41.7385H13.6932C16.2822 41.7385 16.5545 43.0417 16.7282 44.426H17.9909V40.4353H6.92799V41.7385H8.09799C8.62507 41.7385 8.92047 41.976 8.92047 42.3988V49.9517C8.92047 50.444 8.65403 50.8147 8.02848 50.8147H6.92799V52.1295H13.392ZM62.341 40.082C58.5067 40.082 55.9697 42.7637 55.9697 46.2795C55.9697 49.7895 58.5067 52.4944 62.341 52.4944C66.1638 52.4944 68.7066 49.7895 68.7066 46.2795C68.7066 42.7637 66.1638 40.082 62.341 40.082ZM62.341 41.4605C65.1097 41.4605 65.9379 43.7599 65.9379 46.2795C65.9379 48.7991 65.1097 51.1043 62.341 51.1043C59.555 51.1043 58.7326 48.7991 58.7326 46.2795C58.7326 43.7599 59.555 41.4605 62.341 41.4605ZM51.5561 41.391C51.3013 41.1651 50.2066 40.082 48.0461 40.082C44.5882 40.082 42.4162 42.7174 42.4162 46.2795C42.4162 49.8706 44.623 52.4945 48.0461 52.4945C50.2471 52.4945 51.4403 51.4866 51.7125 51.2376L52.367 52.1295H53.566V48.0751C53.566 47.3858 53.8209 47.2005 54.5043 47.2005H54.8287V45.8915H49.4304V47.2005H50.2297C50.809 47.2005 51.1623 47.4611 51.1623 48.0287V48.7122C51.1623 50.0502 50.3398 50.9827 48.55 50.9827C46.3085 50.9827 45.1848 48.9671 45.1848 46.2795C45.1848 43.6325 46.3085 41.6053 48.4805 41.6053C50.7452 41.6053 51.5156 43.7136 51.7762 44.426H53.2243V40.4353H51.9905L51.5561 41.391ZM41.8312 49.3841V49.7027C41.8312 51.7183 40.8697 52.4945 39.4101 52.4945C37.7014 52.4945 37.128 51.672 37.128 50.0791V49.471C37.128 47.4611 36.2708 46.6502 34.3131 46.6502H33.3863V50.1834C33.3863 50.6526 33.6006 50.8147 34.1103 50.8147H35.3962V52.1295H23.7193V50.8147H25.0167C25.3758 50.8147 25.5091 50.7279 25.5091 50.5193C25.5091 50.4093 25.4744 50.2297 25.4048 50.0386C25.3411 49.8822 24.7909 48.3763 24.7909 48.3763H20.6205C20.6205 48.3763 20.1051 49.7664 20.0182 49.9981C19.9602 50.1718 19.9139 50.3166 19.9139 50.4846C19.9139 50.7337 20.1224 50.8147 20.47 50.8147H21.7095V52.1295H16.207V50.8147C17.1395 50.8147 17.7303 50.6815 18.0605 49.8648L21.7906 40.4353H24.0321L27.8549 49.8648C28.1735 50.6931 28.7758 50.8147 29.7084 50.8147H30.1833C30.6872 50.8147 30.9131 50.6526 30.9131 50.1834V42.3756C30.9131 41.9065 30.7336 41.7385 30.1833 41.7385H28.9554V40.4353H36.6357C39.1842 40.4353 40.3832 41.64 40.3832 43.4646C40.3832 45.7293 38.1301 46.1753 37.0759 46.2332V46.2621C38.3096 46.3548 39.3522 46.8645 39.3522 48.6659V49.3493C39.3522 50.5483 39.6071 50.8147 40.0299 50.8147C40.4469 50.8147 40.667 50.4846 40.667 49.7027V49.3841H41.8312ZM24.3101 47.0788L22.7346 42.8216H22.6826L21.1071 47.0788H24.3101ZM37.9273 43.5399C37.9273 42.5147 37.1917 41.7385 35.5583 41.7385H33.3863V45.347H35.5583C37.0643 45.347 37.9273 44.6693 37.9273 43.5399Z" fill="white"/>
</g>
<defs>
<clipPath id="clip0">
<rect width="74.7297" height="74.7297" fill="white"/>
</clipPath>
</defs>
</svg>
